<svg width="534" height="697" viewBox="0 0 534 697" fill="none" xmlns="http://www.w3.org/2000/svg">
<path d="M220 232H230V5C230 2.23857 227.761 0 225 0C222.239 0 220 2.23857 220 5V232Z" fill="#5DC8B4"/>
<path d="M524 401H514V692C514 694.761 516.239 697 519 697C521.761 697 524 694.761 524 692V401Z" fill="#5DC8B4"/>
<path d="M34 397H24L24 692C24 694.761 26.2386 697 29 697C31.7614 697 34 694.761 34 692L34 397Z" fill="#5DC8B4"/>
<g filter="url(#filter0_d_290_1312)">
<rect width="10" height="175" transform="matrix(0 1 1 0 261 527)" fill="#5DC8B4"/>
</g>
<g filter="url(#filter1_d_290_1312)">
<rect width="10" height="167" transform="matrix(0 1 1 0 114 527)" fill="#5DC8B4"/>
</g>
<g filter="url(#filter2_d_290_1312)">
<rect width="10" height="28" transform="matrix(0 1 1 0 113 201)" fill="#5DC8B4"/>
</g>
<g filter="url(#filter3_d_290_1312)">
<rect width="10" height="157" transform="matrix(-1 0 0 1 34 290)" fill="#5DC8B4"/>
</g>
<g filter="url(#filter4_d_290_1312)">
<rect width="10" height="221" transform="matrix(-1 0 0 1 354 227)" fill="#5DC8B4"/>
</g>
<g filter="url(#filter5_d_290_1312)">
<path fill-rule="evenodd" clip-rule="evenodd" d="M514 232C514 187.817 478.183 152 434 152L434 142C457.87 142 480.761 151.482 497.64 168.36C514.518 185.239 524 208.131 524 232C524 255.869 514.518 278.761 497.64 295.64C480.761 312.518 457.869 322 434 322L434 312C478.183 312 514 276.183 514 232Z" fill="#5DC8B4"/>
</g>
<g filter="url(#filter6_d_290_1312)">
<path fill-rule="evenodd" clip-rule="evenodd" d="M350.851 197.558C346.328 208.478 344 220.181 344 232H354C354 221.494 356.069 211.091 360.09 201.385C364.11 191.679 370.003 182.86 377.432 175.431C384.86 168.003 393.679 162.11 403.385 158.09C413.091 154.069 423.494 152 434 152L434 142C422.181 142 410.478 144.328 399.558 148.851C388.639 153.374 378.718 160.003 370.36 168.36C362.003 176.718 355.374 186.639 350.851 197.558Z" fill="#5DC8B4"/>
</g>
<g filter="url(#filter7_d_290_1312)">
<path fill-rule="evenodd" clip-rule="evenodd" d="M223.149 155.442C227.672 144.522 230 132.819 230 121L220 121C220 131.506 217.931 141.909 213.91 151.615C209.89 161.321 203.997 170.14 196.569 177.569C189.14 184.997 180.321 190.89 170.615 194.91C160.909 198.931 150.506 201 140 201L140 211C151.819 211 163.522 208.672 174.442 204.149C185.361 199.626 195.282 192.997 203.64 184.64C211.997 176.282 218.626 166.361 223.149 155.442Z" fill="#5DC8B4"/>
</g>
<g filter="url(#filter8_d_290_1312)">
<path fill-rule="evenodd" clip-rule="evenodd" d="M79.5585 207.851C90.4778 203.328 102.181 201 114 201L114 211C103.494 211 93.0914 213.069 83.3853 217.09C73.6793 221.11 64.8601 227.003 57.4315 234.431C50.0028 241.86 44.11 250.679 40.0896 260.385C36.0693 270.091 34 280.494 34 291L24 291C24 279.181 26.3279 267.478 30.8508 256.558C35.3738 245.639 42.0031 235.718 50.3604 227.36C58.7177 219.003 68.6392 212.374 79.5585 207.851Z" fill="#5DC8B4"/>
</g>
<g filter="url(#filter9_d_290_1312)">
<path fill-rule="evenodd" clip-rule="evenodd" d="M347.149 481.442C351.672 470.522 354 458.819 354 447H344C344 457.506 341.931 467.909 337.91 477.615C333.89 487.321 327.997 496.14 320.569 503.569C313.14 510.997 304.321 516.89 294.615 520.91C284.909 524.931 274.506 527 264 527L264 537C275.819 537 287.522 534.672 298.442 530.149C309.361 525.626 319.282 518.997 327.64 510.64C335.997 502.282 342.626 492.361 347.149 481.442Z" fill="#5DC8B4"/>
</g>
<g filter="url(#filter10_d_290_1312)">
<rect width="10" height="126" transform="matrix(0 1 1 0 309 312)" fill="#5DC8B4"/>
</g>
<g filter="url(#filter11_d_290_1312)">
<path fill-rule="evenodd" clip-rule="evenodd" d="M226.851 266.442C231.374 277.361 238.003 287.282 246.36 295.64C254.718 303.997 264.639 310.626 275.558 315.149C286.478 319.672 298.181 322 310 322V312C299.494 312 289.091 309.931 279.385 305.91C269.679 301.89 260.86 295.997 253.431 288.569C246.003 281.14 240.11 272.321 236.09 262.615C232.069 252.909 230 242.506 230 232L220 232C220 243.819 222.328 255.522 226.851 266.442Z" fill="#5DC8B4"/>
</g>
<g filter="url(#filter12_d_290_1312)">
<path fill-rule="evenodd" clip-rule="evenodd" d="M517.149 367.558C521.672 378.478 524 390.181 524 402H514C514 391.494 511.931 381.091 507.91 371.385C503.89 361.679 497.997 352.86 490.569 345.431C483.14 338.003 474.321 332.11 464.615 328.09C454.909 324.069 444.506 322 434 322L434 312C445.819 312 457.522 314.328 468.442 318.851C479.361 323.374 489.282 330.003 497.64 338.36C505.997 346.718 512.626 356.639 517.149 367.558Z" fill="#5DC8B4"/>
</g>
<g filter="url(#filter13_d_290_1312)">
<path fill-rule="evenodd" clip-rule="evenodd" d="M517.149 582.558C521.672 593.478 524 605.181 524 617H514C514 606.494 511.931 596.091 507.91 586.385C503.89 576.679 497.997 567.86 490.569 560.431C483.14 553.003 474.321 547.11 464.615 543.09C454.909 539.069 444.506 537 434 537L434 527C445.819 527 457.522 529.328 468.442 533.851C479.361 538.374 489.282 545.003 497.64 553.36C505.997 561.718 512.626 571.639 517.149 582.558Z" fill="#5DC8B4"/>
</g>
<g filter="url(#filter14_d_290_1312)">
<path fill-rule="evenodd" clip-rule="evenodd" d="M204 447C204 496.706 163.706 537 114 537C64.2944 537 24 496.706 24 447C24 397.294 64.2944 357 114 357C163.706 357 204 397.294 204 447ZM194 447C194 491.183 158.183 527 114 527C69.8172 527 34 491.183 34 447C34 402.817 69.8172 367 114 367C158.183 367 194 402.817 194 447Z" fill="#5DC8B4"/>
</g>
<g filter="url(#filter15_d_290_1312)">
<rect x="220" y="234" width="5" height="10" transform="rotate(-90 220 234)" fill="#5DC8B4"/>
</g>
<defs>
<filter id="filter0_d_290_1312" x="237" y="503" width="223" height="58" filterUnits="userSpaceOnUse" color-interpolation-filters="sRGB">
<feFlood flood-opacity="0" result="BackgroundImageFix"/>
<feColorMatrix in="SourceAlpha" type="matrix" values="0 0 0 0 0 0 0 0 0 0 0 0 0 0 0 0 0 0 127 0" result="hardAlpha"/>
<feMorphology radius="4" operator="dilate" in="SourceAlpha" result="effect1_dropShadow_290_1312"/>
<feOffset/>
<feGaussianBlur stdDeviation="10"/>
<feComposite in2="hardAlpha" operator="out"/>
<feColorMatrix type="matrix" values="0 0 0 0 0 0 0 0 0 0 0 0 0 0 0 0 0 0 0.25 0"/>
<feBlend mode="normal" in2="BackgroundImageFix" result="effect1_dropShadow_290_1312"/>
<feBlend mode="normal" in="SourceGraphic" in2="effect1_dropShadow_290_1312" result="shape"/>
</filter>
<filter id="filter1_d_290_1312" x="90" y="503" width="215" height="58" filterUnits="userSpaceOnUse" color-interpolation-filters="sRGB">
<feFlood flood-opacity="0" result="BackgroundImageFix"/>
<feColorMatrix in="SourceAlpha" type="matrix" values="0 0 0 0 0 0 0 0 0 0 0 0 0 0 0 0 0 0 127 0" result="hardAlpha"/>
<feMorphology radius="4" operator="dilate" in="SourceAlpha" result="effect1_dropShadow_290_1312"/>
<feOffset/>
<feGaussianBlur stdDeviation="10"/>
<feComposite in2="hardAlpha" operator="out"/>
<feColorMatrix type="matrix" values="0 0 0 0 0 0 0 0 0 0 0 0 0 0 0 0 0 0 0.25 0"/>
<feBlend mode="normal" in2="BackgroundImageFix" result="effect1_dropShadow_290_1312"/>
<feBlend mode="normal" in="SourceGraphic" in2="effect1_dropShadow_290_1312" result="shape"/>
</filter>
<filter id="filter2_d_290_1312" x="89" y="177" width="76" height="58" filterUnits="userSpaceOnUse" color-interpolation-filters="sRGB">
<feFlood flood-opacity="0" result="BackgroundImageFix"/>
<feColorMatrix in="SourceAlpha" type="matrix" values="0 0 0 0 0 0 0 0 0 0 0 0 0 0 0 0 0 0 127 0" result="hardAlpha"/>
<feMorphology radius="4" operator="dilate" in="SourceAlpha" result="effect1_dropShadow_290_1312"/>
<feOffset/>
<feGaussianBlur stdDeviation="10"/>
<feComposite in2="hardAlpha" operator="out"/>
<feColorMatrix type="matrix" values="0 0 0 0 0 0 0 0 0 0 0 0 0 0 0 0 0 0 0.25 0"/>
<feBlend mode="normal" in2="BackgroundImageFix" result="effect1_dropShadow_290_1312"/>
<feBlend mode="normal" in="SourceGraphic" in2="effect1_dropShadow_290_1312" result="shape"/>
</filter>
<filter id="filter3_d_290_1312" x="0" y="266" width="58" height="205" filterUnits="userSpaceOnUse" color-interpolation-filters="sRGB">
<feFlood flood-opacity="0" result="BackgroundImageFix"/>
<feColorMatrix in="SourceAlpha" type="matrix" values="0 0 0 0 0 0 0 0 0 0 0 0 0 0 0 0 0 0 127 0" result="hardAlpha"/>
<feMorphology radius="4" operator="dilate" in="SourceAlpha" result="effect1_dropShadow_290_1312"/>
<feOffset/>
<feGaussianBlur stdDeviation="10"/>
<feComposite in2="hardAlpha" operator="out"/>
<feColorMatrix type="matrix" values="0 0 0 0 0 0 0 0 0 0 0 0 0 0 0 0 0 0 0.25 0"/>
<feBlend mode="normal" in2="BackgroundImageFix" result="effect1_dropShadow_290_1312"/>
<feBlend mode="normal" in="SourceGraphic" in2="effect1_dropShadow_290_1312" result="shape"/>
</filter>
<filter id="filter4_d_290_1312" x="320" y="203" width="58" height="269" filterUnits="userSpaceOnUse" color-interpolation-filters="sRGB">
<feFlood flood-opacity="0" result="BackgroundImageFix"/>
<feColorMatrix in="SourceAlpha" type="matrix" values="0 0 0 0 0 0 0 0 0 0 0 0 0 0 0 0 0 0 127 0" result="hardAlpha"/>
<feMorphology radius="4" operator="dilate" in="SourceAlpha" result="effect1_dropShadow_290_1312"/>
<feOffset/>
<feGaussianBlur stdDeviation="10"/>
<feComposite in2="hardAlpha" operator="out"/>
<feColorMatrix type="matrix" values="0 0 0 0 0 0 0 0 0 0 0 0 0 0 0 0 0 0 0.25 0"/>
<feBlend mode="normal" in2="BackgroundImageFix" result="effect1_dropShadow_290_1312"/>
<feBlend mode="normal" in="SourceGraphic" in2="effect1_dropShadow_290_1312" result="shape"/>
</filter>
<filter id="filter5_d_290_1312" x="424" y="132" width="110" height="200" filterUnits="userSpaceOnUse" color-interpolation-filters="sRGB">
<feFlood flood-opacity="0" result="BackgroundImageFix"/>
<feColorMatrix in="SourceAlpha" type="matrix" values="0 0 0 0 0 0 0 0 0 0 0 0 0 0 0 0 0 0 127 0" result="hardAlpha"/>
<feOffset/>
<feGaussianBlur stdDeviation="5"/>
<feComposite in2="hardAlpha" operator="out"/>
<feColorMatrix type="matrix" values="0 0 0 0 0 0 0 0 0 0 0 0 0 0 0 0 0 0 0.25 0"/>
<feBlend mode="normal" in2="BackgroundImageFix" result="effect1_dropShadow_290_1312"/>
<feBlend mode="normal" in="SourceGraphic" in2="effect1_dropShadow_290_1312" result="shape"/>
</filter>
<filter id="filter6_d_290_1312" x="334" y="132" width="110" height="110" filterUnits="userSpaceOnUse" color-interpolation-filters="sRGB">
<feFlood flood-opacity="0" result="BackgroundImageFix"/>
<feColorMatrix in="SourceAlpha" type="matrix" values="0 0 0 0 0 0 0 0 0 0 0 0 0 0 0 0 0 0 127 0" result="hardAlpha"/>
<feOffset/>
<feGaussianBlur stdDeviation="5"/>
<feComposite in2="hardAlpha" operator="out"/>
<feColorMatrix type="matrix" values="0 0 0 0 0 0 0 0 0 0 0 0 0 0 0 0 0 0 0.25 0"/>
<feBlend mode="normal" in2="BackgroundImageFix" result="effect1_dropShadow_290_1312"/>
<feBlend mode="normal" in="SourceGraphic" in2="effect1_dropShadow_290_1312" result="shape"/>
</filter>
<filter id="filter7_d_290_1312" x="130" y="111" width="110" height="110" filterUnits="userSpaceOnUse" color-interpolation-filters="sRGB">
<feFlood flood-opacity="0" result="BackgroundImageFix"/>
<feColorMatrix in="SourceAlpha" type="matrix" values="0 0 0 0 0 0 0 0 0 0 0 0 0 0 0 0 0 0 127 0" result="hardAlpha"/>
<feOffset/>
<feGaussianBlur stdDeviation="5"/>
<feComposite in2="hardAlpha" operator="out"/>
<feColorMatrix type="matrix" values="0 0 0 0 0 0 0 0 0 0 0 0 0 0 0 0 0 0 0.25 0"/>
<feBlend mode="normal" in2="BackgroundImageFix" result="effect1_dropShadow_290_1312"/>
<feBlend mode="normal" in="SourceGraphic" in2="effect1_dropShadow_290_1312" result="shape"/>
</filter>
<filter id="filter8_d_290_1312" x="14" y="191" width="110" height="110" filterUnits="userSpaceOnUse" color-interpolation-filters="sRGB">
<feFlood flood-opacity="0" result="BackgroundImageFix"/>
<feColorMatrix in="SourceAlpha" type="matrix" values="0 0 0 0 0 0 0 0 0 0 0 0 0 0 0 0 0 0 127 0" result="hardAlpha"/>
<feOffset/>
<feGaussianBlur stdDeviation="5"/>
<feComposite in2="hardAlpha" operator="out"/>
<feColorMatrix type="matrix" values="0 0 0 0 0 0 0 0 0 0 0 0 0 0 0 0 0 0 0.25 0"/>
<feBlend mode="normal" in2="BackgroundImageFix" result="effect1_dropShadow_290_1312"/>
<feBlend mode="normal" in="SourceGraphic" in2="effect1_dropShadow_290_1312" result="shape"/>
</filter>
<filter id="filter9_d_290_1312" x="254" y="437" width="110" height="110" filterUnits="userSpaceOnUse" color-interpolation-filters="sRGB">
<feFlood flood-opacity="0" result="BackgroundImageFix"/>
<feColorMatrix in="SourceAlpha" type="matrix" values="0 0 0 0 0 0 0 0 0 0 0 0 0 0 0 0 0 0 127 0" result="hardAlpha"/>
<feOffset/>
<feGaussianBlur stdDeviation="5"/>
<feComposite in2="hardAlpha" operator="out"/>
<feColorMatrix type="matrix" values="0 0 0 0 0 0 0 0 0 0 0 0 0 0 0 0 0 0 0.25 0"/>
<feBlend mode="normal" in2="BackgroundImageFix" result="effect1_dropShadow_290_1312"/>
<feBlend mode="normal" in="SourceGraphic" in2="effect1_dropShadow_290_1312" result="shape"/>
</filter>
<filter id="filter10_d_290_1312" x="285" y="288" width="174" height="58" filterUnits="userSpaceOnUse" color-interpolation-filters="sRGB">
<feFlood flood-opacity="0" result="BackgroundImageFix"/>
<feColorMatrix in="SourceAlpha" type="matrix" values="0 0 0 0 0 0 0 0 0 0 0 0 0 0 0 0 0 0 127 0" result="hardAlpha"/>
<feMorphology radius="4" operator="dilate" in="SourceAlpha" result="effect1_dropShadow_290_1312"/>
<feOffset/>
<feGaussianBlur stdDeviation="10"/>
<feComposite in2="hardAlpha" operator="out"/>
<feColorMatrix type="matrix" values="0 0 0 0 0 0 0 0 0 0 0 0 0 0 0 0 0 0 0.25 0"/>
<feBlend mode="normal" in2="BackgroundImageFix" result="effect1_dropShadow_290_1312"/>
<feBlend mode="normal" in="SourceGraphic" in2="effect1_dropShadow_290_1312" result="shape"/>
</filter>
<filter id="filter11_d_290_1312" x="210" y="222" width="110" height="110" filterUnits="userSpaceOnUse" color-interpolation-filters="sRGB">
<feFlood flood-opacity="0" result="BackgroundImageFix"/>
<feColorMatrix in="SourceAlpha" type="matrix" values="0 0 0 0 0 0 0 0 0 0 0 0 0 0 0 0 0 0 127 0" result="hardAlpha"/>
<feOffset/>
<feGaussianBlur stdDeviation="5"/>
<feComposite in2="hardAlpha" operator="out"/>
<feColorMatrix type="matrix" values="0 0 0 0 0 0 0 0 0 0 0 0 0 0 0 0 0 0 0.25 0"/>
<feBlend mode="normal" in2="BackgroundImageFix" result="effect1_dropShadow_290_1312"/>
<feBlend mode="normal" in="SourceGraphic" in2="effect1_dropShadow_290_1312" result="shape"/>
</filter>
<filter id="filter12_d_290_1312" x="424" y="302" width="110" height="110" filterUnits="userSpaceOnUse" color-interpolation-filters="sRGB">
<feFlood flood-opacity="0" result="BackgroundImageFix"/>
<feColorMatrix in="SourceAlpha" type="matrix" values="0 0 0 0 0 0 0 0 0 0 0 0 0 0 0 0 0 0 127 0" result="hardAlpha"/>
<feOffset/>
<feGaussianBlur stdDeviation="5"/>
<feComposite in2="hardAlpha" operator="out"/>
<feColorMatrix type="matrix" values="0 0 0 0 0 0 0 0 0 0 0 0 0 0 0 0 0 0 0.25 0"/>
<feBlend mode="normal" in2="BackgroundImageFix" result="effect1_dropShadow_290_1312"/>
<feBlend mode="normal" in="SourceGraphic" in2="effect1_dropShadow_290_1312" result="shape"/>
</filter>
<filter id="filter13_d_290_1312" x="424" y="517" width="110" height="110" filterUnits="userSpaceOnUse" color-interpolation-filters="sRGB">
<feFlood flood-opacity="0" result="BackgroundImageFix"/>
<feColorMatrix in="SourceAlpha" type="matrix" values="0 0 0 0 0 0 0 0 0 0 0 0 0 0 0 0 0 0 127 0" result="hardAlpha"/>
<feOffset/>
<feGaussianBlur stdDeviation="5"/>
<feComposite in2="hardAlpha" operator="out"/>
<feColorMatrix type="matrix" values="0 0 0 0 0 0 0 0 0 0 0 0 0 0 0 0 0 0 0.25 0"/>
<feBlend mode="normal" in2="BackgroundImageFix" result="effect1_dropShadow_290_1312"/>
<feBlend mode="normal" in="SourceGraphic" in2="effect1_dropShadow_290_1312" result="shape"/>
</filter>
<filter id="filter14_d_290_1312" x="14" y="347" width="200" height="200" filterUnits="userSpaceOnUse" color-interpolation-filters="sRGB">
<feFlood flood-opacity="0" result="BackgroundImageFix"/>
<feColorMatrix in="SourceAlpha" type="matrix" values="0 0 0 0 0 0 0 0 0 0 0 0 0 0 0 0 0 0 127 0" result="hardAlpha"/>
<feOffset/>
<feGaussianBlur stdDeviation="5"/>
<feComposite in2="hardAlpha" operator="out"/>
<feColorMatrix type="matrix" values="0 0 0 0 0 0 0 0 0 0 0 0 0 0 0 0 0 0 0.25 0"/>
<feBlend mode="normal" in2="BackgroundImageFix" result="effect1_dropShadow_290_1312"/>
<feBlend mode="normal" in="SourceGraphic" in2="effect1_dropShadow_290_1312" result="shape"/>
</filter>
<filter id="filter15_d_290_1312" x="196" y="205" width="58" height="53" filterUnits="userSpaceOnUse" color-interpolation-filters="sRGB">
<feFlood flood-opacity="0" result="BackgroundImageFix"/>
<feColorMatrix in="SourceAlpha" type="matrix" values="0 0 0 0 0 0 0 0 0 0 0 0 0 0 0 0 0 0 127 0" result="hardAlpha"/>
<feMorphology radius="4" operator="dilate" in="SourceAlpha" result="effect1_dropShadow_290_1312"/>
<feOffset/>
<feGaussianBlur stdDeviation="10"/>
<feComposite in2="hardAlpha" operator="out"/>
<feColorMatrix type="matrix" values="0 0 0 0 0 0 0 0 0 0 0 0 0 0 0 0 0 0 0.25 0"/>
<feBlend mode="normal" in2="BackgroundImageFix" result="effect1_dropShadow_290_1312"/>
<feBlend mode="normal" in="SourceGraphic" in2="effect1_dropShadow_290_1312" result="shape"/>
</filter>
</defs>
</svg>
