<svg width="599" height="876" viewBox="0 0 599 876" fill="none" xmlns="http://www.w3.org/2000/svg">
<path d="M214 291H224V5C224 2.23856 221.761 0 219 0C216.239 0 214 2.23859 214 5V291Z" fill="#161618"/>
<path d="M599 461H589V871C589 873.761 591.239 876 594 876C596.761 876 599 873.761 599 871V461Z" fill="#161618"/>
<path d="M10 456H0L0 871C0 873.761 2.23858 876 5 876C7.76142 876 10 873.761 10 871L10 456Z" fill="#161618"/>
<rect width="10" height="175" transform="matrix(0 1 1 0 336 586)" fill="#161618"/>
<rect width="10" height="284" transform="matrix(0 1 1 0 92 586)" fill="#161618"/>
<rect width="10" height="46" transform="matrix(0 1 1 0 89 221)" fill="#161618"/>
<rect width="10" height="195" transform="matrix(-1 0 0 1 10 311)" fill="#161618"/>
<rect width="10" height="221" transform="matrix(-1 0 0 1 429 286)" fill="#161618"/>
<path fill-rule="evenodd" clip-rule="evenodd" d="M589 291C589 246.817 553.183 211 509 211L509 201C532.87 201 555.761 210.482 572.64 227.36C589.518 244.239 599 267.131 599 291C599 314.869 589.518 337.761 572.64 354.64C555.761 371.518 532.869 381 509 381L509 371C553.183 371 589 335.183 589 291Z" fill="#161618"/>
<path fill-rule="evenodd" clip-rule="evenodd" d="M425.851 256.558C421.328 267.478 419 279.181 419 291H429C429 280.494 431.069 270.091 435.09 260.385C439.11 250.679 445.003 241.86 452.432 234.431C459.86 227.003 468.679 221.11 478.385 217.09C488.091 213.069 498.494 211 509 211L509 201C497.181 201 485.478 203.328 474.558 207.851C463.639 212.374 453.718 219.003 445.36 227.36C437.003 235.718 430.374 245.639 425.851 256.558Z" fill="#161618"/>
<path fill-rule="evenodd" clip-rule="evenodd" d="M217.149 175.442C221.672 164.522 224 152.819 224 141H214C214 151.506 211.931 161.909 207.91 171.615C203.89 181.321 197.997 190.14 190.569 197.569C183.14 204.997 174.321 210.89 164.615 214.91C154.909 218.931 144.506 221 134 221L134 231C145.819 231 157.522 228.672 168.442 224.149C179.361 219.626 189.282 212.997 197.64 204.64C205.997 196.282 212.626 186.361 217.149 175.442Z" fill="#161618"/>
<path fill-rule="evenodd" clip-rule="evenodd" d="M55.5585 227.851C66.4778 223.328 78.181 221 90 221V231C79.4942 231 69.0914 233.069 59.3853 237.09C49.6793 241.11 40.8601 247.003 33.4315 254.431C26.0028 261.86 20.11 270.679 16.0896 280.385C12.0693 290.091 10 300.494 10 311L0 311C0 299.181 2.32792 287.478 6.85084 276.558C11.3738 265.639 18.0031 255.718 26.3604 247.36C34.7177 239.003 44.6392 232.374 55.5585 227.851Z" fill="#161618"/>
<path fill-rule="evenodd" clip-rule="evenodd" d="M422.149 540.442C426.672 529.522 429 517.819 429 506H419C419 516.506 416.931 526.909 412.91 536.615C408.89 546.321 402.997 555.14 395.569 562.569C388.14 569.997 379.321 575.89 369.615 579.91C359.909 583.931 349.506 586 339 586L339 596C350.819 596 362.522 593.672 373.442 589.149C384.361 584.626 394.282 577.997 402.64 569.64C410.997 561.282 417.626 551.361 422.149 540.442Z" fill="#161618"/>
<rect width="10" height="211" transform="matrix(0 1 1 0 303 371)" fill="#161618"/>
<path fill-rule="evenodd" clip-rule="evenodd" d="M220.851 325.442C225.374 336.361 232.003 346.282 240.36 354.64C248.718 362.997 258.639 369.626 269.558 374.149C280.478 378.672 292.181 381 304 381V371C293.494 371 283.091 368.931 273.385 364.91C263.679 360.89 254.86 354.997 247.431 347.569C240.003 340.14 234.11 331.321 230.09 321.615C226.069 311.909 224 301.506 224 291L214 291C214 302.819 216.328 314.522 220.851 325.442Z" fill="#161618"/>
<path fill-rule="evenodd" clip-rule="evenodd" d="M592.149 426.558C596.672 437.478 599 449.181 599 461H589C589 450.494 586.931 440.091 582.91 430.385C578.89 420.679 572.997 411.86 565.569 404.431C558.14 397.003 549.321 391.11 539.615 387.09C529.909 383.069 519.506 381 509 381L509 371C520.819 371 532.522 373.328 543.442 377.851C554.361 382.374 564.282 389.003 572.64 397.36C580.997 405.718 587.626 415.639 592.149 426.558Z" fill="#161618"/>
<path fill-rule="evenodd" clip-rule="evenodd" d="M592.149 641.558C596.672 652.478 599 664.181 599 676H589C589 665.494 586.931 655.091 582.91 645.385C578.89 635.679 572.997 626.86 565.569 619.431C558.14 612.003 549.321 606.11 539.615 602.09C529.909 598.069 519.506 596 509 596L509 586C520.819 586 532.522 588.328 543.442 592.851C554.361 597.374 564.282 604.003 572.64 612.36C580.997 620.718 587.626 630.639 592.149 641.558Z" fill="#161618"/>
<path fill-rule="evenodd" clip-rule="evenodd" d="M180 506C180 555.706 139.706 596 90 596C40.2944 596 0 555.706 0 506C0 456.294 40.2944 416 90 416C139.706 416 180 456.294 180 506ZM170 506C170 550.183 134.183 586 90 586C45.8172 586 10 550.183 10 506C10 461.817 45.8172 426 90 426C134.183 426 170 461.817 170 506Z" fill="#161618"/>
<rect x="508" y="201" width="3" height="10" fill="#161618"/>
<rect x="589" y="463" width="4" height="10" transform="rotate(-90 589 463)" fill="#161618"/>
<rect x="214" y="293" width="5" height="10" transform="rotate(-90 214 293)" fill="#161618"/>
<rect y="313" width="5" height="10" transform="rotate(-90 0 313)" fill="#161618"/>
</svg>
