<svg width="1556" height="195" viewBox="0 0 1556 195" fill="none" xmlns="http://www.w3.org/2000/svg">
<rect width="9.99999" height="172" transform="matrix(4.37114e-08 -1 -1 -4.37114e-08 1140.22 10)" fill="#161618"/>
<rect width="9.99999" height="172" transform="matrix(4.37114e-08 -1 -1 -4.37114e-08 1140.22 195)" fill="#161618"/>
<rect width="10" height="19" transform="matrix(1 4.88539e-08 3.91102e-08 -1 1050.22 107)" fill="#161618"/>
<path fill-rule="evenodd" clip-rule="evenodd" d="M1004.66 6.85084C993.745 2.32791 982.042 -1.10468e-05 970.223 -1.15634e-05L970.223 9.99999C980.728 9.99999 991.131 12.0692 1000.84 16.0896C1010.54 20.11 1019.36 26.0028 1026.79 33.4315C1034.22 40.8601 1040.11 49.6793 1044.13 59.3853C1048.15 69.0914 1050.22 79.4942 1050.22 90L1060.22 90C1060.22 78.181 1057.89 66.4778 1053.37 55.5585C1048.85 44.6392 1042.22 34.7177 1033.86 26.3604C1025.5 18.0031 1015.58 11.3738 1004.66 6.85084Z" fill="#161618"/>
<path fill-rule="evenodd" clip-rule="evenodd" d="M1057.07 139.442C1052.55 128.522 1050.22 116.819 1050.22 105L1060.22 105C1060.22 115.506 1062.29 125.909 1066.31 135.615C1070.33 145.321 1076.23 154.14 1083.65 161.569C1091.08 168.997 1099.9 174.89 1109.61 178.91C1119.31 182.931 1129.72 185 1140.22 185L1140.22 195C1128.4 195 1116.7 192.672 1105.78 188.149C1094.86 183.626 1084.94 176.997 1076.58 168.64C1068.23 160.282 1061.6 150.361 1057.07 139.442Z" fill="#161618"/>
<rect width="9.99999" height="173" transform="matrix(4.37114e-08 -1 -1 -4.37114e-08 1312.22 10)" fill="#161618"/>
<rect width="9.99999" height="173" transform="matrix(4.37114e-08 -1 -1 -4.37114e-08 1312.22 195)" fill="#161618"/>
<rect width="10" height="19" transform="matrix(1 4.88539e-08 3.91102e-08 -1 1222.22 107)" fill="#161618"/>
<path fill-rule="evenodd" clip-rule="evenodd" d="M1176.66 6.85084C1165.74 2.32791 1154.04 -1.10468e-05 1142.22 -1.15634e-05L1142.22 9.99999C1152.73 9.99999 1163.13 12.0692 1172.84 16.0896C1182.54 20.11 1191.36 26.0028 1198.79 33.4315C1206.22 40.8601 1212.11 49.6793 1216.13 59.3853C1220.15 69.0914 1222.22 79.4942 1222.22 90L1232.22 90C1232.22 78.181 1229.89 66.4778 1225.37 55.5585C1220.85 44.6392 1214.22 34.7177 1205.86 26.3604C1197.5 18.0031 1187.58 11.3738 1176.66 6.85084Z" fill="#161618"/>
<path fill-rule="evenodd" clip-rule="evenodd" d="M1229.07 139.442C1224.55 128.522 1222.22 116.819 1222.22 105L1232.22 105C1232.22 115.506 1234.29 125.909 1238.31 135.615C1242.33 145.321 1248.23 154.14 1255.65 161.569C1263.08 168.997 1271.9 174.89 1281.61 178.91C1291.31 182.931 1301.72 185 1312.22 185L1312.22 195C1300.4 195 1288.7 192.672 1277.78 188.149C1266.86 183.626 1256.94 176.997 1248.58 168.64C1240.23 160.282 1233.6 150.361 1229.07 139.442Z" fill="#161618"/>
<path d="M290.223 10L290.223 1.43051e-05L5.22266 1.84737e-06C2.46124 1.72666e-06 0.222657 2.23857 0.222656 4.99999C0.222656 7.76141 2.46124 9.99999 5.22266 9.99999L290.223 10Z" fill="#161618"/>
<path d="M290.223 195L290.223 185L35.2227 185C32.4612 185 30.2227 187.239 30.2227 190C30.2227 192.761 32.4612 195 35.2227 195L290.223 195Z" fill="#161618"/>
<rect width="10" height="17" transform="matrix(1 4.37114e-08 4.37114e-08 -1 200.223 106)" fill="#161618"/>
<path fill-rule="evenodd" clip-rule="evenodd" d="M154.664 6.85084C143.745 2.32791 132.042 -1.10468e-05 120.223 -1.15634e-05L120.223 9.99999C130.728 9.99999 141.131 12.0692 150.837 16.0896C160.543 20.11 169.363 26.0028 176.791 33.4315C184.22 40.8601 190.113 49.6793 194.133 59.3853C198.153 69.0914 200.223 79.4942 200.223 90L210.223 90C210.223 78.181 207.895 66.4778 203.372 55.5585C198.849 44.6392 192.22 34.7177 183.862 26.3604C175.505 18.0031 165.583 11.3738 154.664 6.85084Z" fill="#161618"/>
<path fill-rule="evenodd" clip-rule="evenodd" d="M207.073 139.442C202.551 128.522 200.223 116.819 200.223 105L210.223 105C210.223 115.506 212.292 125.909 216.312 135.615C220.333 145.321 226.225 154.14 233.654 161.569C241.083 168.997 249.902 174.89 259.608 178.91C269.314 182.931 279.717 185 290.223 185L290.223 195C278.404 195 266.7 192.672 255.781 188.149C244.862 183.626 234.94 176.997 226.583 168.64C218.226 160.282 211.596 150.361 207.073 139.442Z" fill="#161618"/>
<rect width="9.99999" height="172" transform="matrix(4.37114e-08 -1 -1 -4.37114e-08 460.223 10)" fill="#161618"/>
<rect width="9.99999" height="172" transform="matrix(4.37114e-08 -1 -1 -4.37114e-08 460.223 195)" fill="#161618"/>
<rect width="10" height="19" transform="matrix(1 4.88539e-08 3.91102e-08 -1 370.223 107)" fill="#161618"/>
<path fill-rule="evenodd" clip-rule="evenodd" d="M324.664 6.85084C313.745 2.32791 302.042 -1.10468e-05 290.223 -1.15634e-05L290.223 9.99999C300.728 9.99999 311.131 12.0692 320.837 16.0896C330.543 20.11 339.363 26.0028 346.791 33.4315C354.22 40.8601 360.113 49.6793 364.133 59.3853C368.153 69.0914 370.223 79.4942 370.223 90L380.223 90C380.223 78.181 377.895 66.4778 373.372 55.5585C368.849 44.6392 362.22 34.7177 353.862 26.3604C345.505 18.0031 335.583 11.3738 324.664 6.85084Z" fill="#161618"/>
<path fill-rule="evenodd" clip-rule="evenodd" d="M377.073 139.442C372.551 128.522 370.223 116.819 370.223 105L380.223 105C380.223 115.506 382.292 125.909 386.312 135.615C390.333 145.321 396.225 154.14 403.654 161.569C411.083 168.997 419.902 174.89 429.608 178.91C439.314 182.931 449.717 185 460.223 185L460.223 195C448.404 195 436.7 192.672 425.781 188.149C414.862 183.626 404.94 176.997 396.583 168.64C388.226 160.282 381.596 150.361 377.073 139.442Z" fill="#161618"/>
<rect width="9.99999" height="174" transform="matrix(4.37114e-08 -1 -1 -4.37114e-08 632.223 10)" fill="#161618"/>
<rect width="9.99999" height="174" transform="matrix(4.37114e-08 -1 -1 -4.37114e-08 632.223 195)" fill="#161618"/>
<rect width="10" height="19" transform="matrix(1 4.88539e-08 3.91102e-08 -1 542.223 107)" fill="#161618"/>
<path fill-rule="evenodd" clip-rule="evenodd" d="M496.664 6.85084C485.745 2.32791 474.042 -1.10468e-05 462.223 -1.15634e-05L462.223 9.99999C472.728 9.99999 483.131 12.0692 492.837 16.0896C502.543 20.11 511.363 26.0028 518.791 33.4315C526.22 40.8601 532.113 49.6793 536.133 59.3853C540.153 69.0914 542.223 79.4942 542.223 90L552.223 90C552.223 78.181 549.895 66.4778 545.372 55.5585C540.849 44.6392 534.22 34.7177 525.862 26.3604C517.505 18.0031 507.583 11.3738 496.664 6.85084Z" fill="#161618"/>
<path fill-rule="evenodd" clip-rule="evenodd" d="M549.073 139.442C544.551 128.522 542.223 116.819 542.223 105L552.223 105C552.223 115.506 554.292 125.909 558.312 135.615C562.333 145.321 568.225 154.14 575.654 161.569C583.083 168.997 591.902 174.89 601.608 178.91C611.314 182.931 621.717 185 632.223 185L632.223 195C620.404 195 608.7 192.672 597.781 188.149C586.862 183.626 576.94 176.997 568.583 168.64C560.226 160.282 553.596 150.361 549.073 139.442Z" fill="#161618"/>
<rect width="9.99999" height="174" transform="matrix(4.37114e-08 -1 -1 -4.37114e-08 803.223 10)" fill="#161618"/>
<rect width="9.99999" height="174" transform="matrix(4.37114e-08 -1 -1 -4.37114e-08 803.223 195)" fill="#161618"/>
<rect width="10" height="19" transform="matrix(1 4.88539e-08 3.91102e-08 -1 713.223 107)" fill="#161618"/>
<path fill-rule="evenodd" clip-rule="evenodd" d="M667.664 6.85084C656.745 2.32791 645.042 -1.10468e-05 633.223 -1.15634e-05L633.223 9.99999C643.728 9.99999 654.131 12.0692 663.837 16.0896C673.543 20.11 682.363 26.0028 689.791 33.4315C697.22 40.8601 703.113 49.6793 707.133 59.3853C711.153 69.0914 713.223 79.4942 713.223 90L723.223 90C723.223 78.181 720.895 66.4778 716.372 55.5585C711.849 44.6392 705.22 34.7177 696.862 26.3604C688.505 18.0031 678.583 11.3738 667.664 6.85084Z" fill="#161618"/>
<path fill-rule="evenodd" clip-rule="evenodd" d="M720.073 139.442C715.551 128.522 713.223 116.819 713.223 105L723.223 105C723.223 115.506 725.292 125.909 729.312 135.615C733.333 145.321 739.225 154.14 746.654 161.569C754.083 168.997 762.902 174.89 772.608 178.91C782.314 182.931 792.717 185 803.223 185L803.223 195C791.404 195 779.7 192.672 768.781 188.149C757.862 183.626 747.94 176.997 739.583 168.64C731.226 160.282 724.596 150.361 720.073 139.442Z" fill="#161618"/>
<rect width="9.99999" height="174" transform="matrix(4.37114e-08 -1 -1 -4.37114e-08 968.223 10)" fill="#161618"/>
<rect width="9.99999" height="174" transform="matrix(4.37114e-08 -1 -1 -4.37114e-08 968.223 195)" fill="#161618"/>
<rect width="10" height="19" transform="matrix(1 4.88539e-08 3.91102e-08 -1 878.223 107)" fill="#161618"/>
<path fill-rule="evenodd" clip-rule="evenodd" d="M832.664 6.85084C821.745 2.32791 810.042 -1.10468e-05 798.223 -1.15634e-05L798.223 9.99999C808.728 9.99999 819.131 12.0692 828.837 16.0896C838.543 20.11 847.363 26.0028 854.791 33.4315C862.22 40.8601 868.113 49.6793 872.133 59.3853C876.153 69.0914 878.223 79.4942 878.223 90L888.223 90C888.223 78.181 885.895 66.4778 881.372 55.5585C876.849 44.6392 870.22 34.7177 861.862 26.3604C853.505 18.0031 843.583 11.3738 832.664 6.85084Z" fill="#161618"/>
<path fill-rule="evenodd" clip-rule="evenodd" d="M885.073 139.442C880.551 128.522 878.223 116.819 878.223 105L888.223 105C888.223 115.506 890.292 125.909 894.312 135.615C898.333 145.321 904.225 154.14 911.654 161.569C919.083 168.997 927.902 174.89 937.608 178.91C947.314 182.931 957.717 185 968.223 185L968.223 195C956.404 195 944.7 192.672 933.781 188.149C922.862 183.626 912.94 176.997 904.583 168.64C896.226 160.282 889.596 150.361 885.073 139.442Z" fill="#161618"/>
<path d="M1602.22 195C1604.98 195 1607.22 192.761 1607.22 190C1607.22 187.239 1604.98 185 1602.22 185L1484.22 185L1484.22 195L1602.22 195Z" fill="#161618"/>
<path d="M1572.22 10C1574.98 10 1577.22 7.76143 1577.22 5.00001C1577.22 2.23858 1574.98 1.13462e-05 1572.22 1.12255e-05L1310.22 -2.26849e-07L1310.22 9.99999L1572.22 10Z" fill="#161618"/>
<rect width="9.99999" height="176" transform="matrix(4.37114e-08 -1 -1 -4.37114e-08 1486.22 195)" fill="#161618"/>
<rect width="10" height="19" transform="matrix(1 4.88539e-08 3.91102e-08 -1 1396.22 107)" fill="#161618"/>
<path fill-rule="evenodd" clip-rule="evenodd" d="M1350.66 6.85084C1339.74 2.32791 1328.04 -1.10468e-05 1316.22 -1.15634e-05L1316.22 9.99999C1326.73 9.99999 1337.13 12.0692 1346.84 16.0896C1356.54 20.11 1365.36 26.0028 1372.79 33.4315C1380.22 40.8601 1386.11 49.6793 1390.13 59.3853C1394.15 69.0914 1396.22 79.4942 1396.22 90L1406.22 90C1406.22 78.181 1403.89 66.4778 1399.37 55.5585C1394.85 44.6392 1388.22 34.7177 1379.86 26.3604C1371.5 18.0031 1361.58 11.3738 1350.66 6.85084Z" fill="#161618"/>
<path fill-rule="evenodd" clip-rule="evenodd" d="M1403.07 139.442C1398.55 128.522 1396.22 116.819 1396.22 105L1406.22 105C1406.22 115.506 1408.29 125.909 1412.31 135.615C1416.33 145.321 1422.23 154.14 1429.65 161.569C1437.08 168.997 1445.9 174.89 1455.61 178.91C1465.31 182.931 1475.72 185 1486.22 185L1486.22 195C1474.4 195 1462.7 192.672 1451.78 188.149C1440.86 183.626 1430.94 176.997 1422.58 168.64C1414.23 160.282 1407.6 150.361 1403.07 139.442Z" fill="#161618"/>
</svg>
