<svg width="1440" height="195" viewBox="0 0 1440 195" fill="none" xmlns="http://www.w3.org/2000/svg">
<rect width="9.99999" height="172" transform="matrix(4.37114e-08 -1 -1 -4.37114e-08 1053.5 10)" fill="#5DC8B4"/>
<rect width="9.99999" height="172" transform="matrix(4.37114e-08 -1 -1 -4.37114e-08 1053.5 195)" fill="#5DC8B4"/>
<rect width="10" height="19" transform="matrix(1 4.88539e-08 3.91102e-08 -1 963.5 107)" fill="#5DC8B4"/>
<path fill-rule="evenodd" clip-rule="evenodd" d="M917.942 6.85084C907.023 2.32791 895.319 -1.10468e-05 883.5 -1.15634e-05L883.5 9.99999C894.006 9.99999 904.409 12.0692 914.115 16.0896C923.821 20.11 932.64 26.0028 940.069 33.4315C947.498 40.8601 953.39 49.6793 957.411 59.3853C961.431 69.0914 963.5 79.4942 963.5 90L973.5 90C973.5 78.181 971.173 66.4778 966.65 55.5585C962.127 44.6392 955.497 34.7177 947.14 26.3604C938.783 18.0031 928.861 11.3738 917.942 6.85084Z" fill="#5DC8B4"/>
<path fill-rule="evenodd" clip-rule="evenodd" d="M970.351 139.442C965.828 128.522 963.5 116.819 963.5 105L973.5 105C973.5 115.506 975.57 125.909 979.59 135.615C983.61 145.321 989.503 154.14 996.932 161.569C1004.36 168.997 1013.18 174.89 1022.89 178.91C1032.59 182.931 1042.99 185 1053.5 185L1053.5 195C1041.68 195 1029.98 192.672 1019.06 188.149C1008.14 183.626 998.218 176.997 989.861 168.64C981.504 160.282 974.874 150.361 970.351 139.442Z" fill="#5DC8B4"/>
<rect width="9.99999" height="173" transform="matrix(4.37114e-08 -1 -1 -4.37114e-08 1225.5 10)" fill="#5DC8B4"/>
<rect width="9.99999" height="173" transform="matrix(4.37114e-08 -1 -1 -4.37114e-08 1225.5 195)" fill="#5DC8B4"/>
<rect width="10" height="19" transform="matrix(1 4.88539e-08 3.91102e-08 -1 1135.5 107)" fill="#5DC8B4"/>
<path fill-rule="evenodd" clip-rule="evenodd" d="M1089.94 6.85084C1079.02 2.32791 1067.32 -1.10468e-05 1055.5 -1.15634e-05L1055.5 9.99999C1066.01 9.99999 1076.41 12.0692 1086.12 16.0896C1095.82 20.11 1104.64 26.0028 1112.07 33.4315C1119.5 40.8601 1125.39 49.6793 1129.41 59.3853C1133.43 69.0914 1135.5 79.4942 1135.5 90L1145.5 90C1145.5 78.181 1143.17 66.4778 1138.65 55.5585C1134.13 44.6392 1127.5 34.7177 1119.14 26.3604C1110.78 18.0031 1100.86 11.3738 1089.94 6.85084Z" fill="#5DC8B4"/>
<path fill-rule="evenodd" clip-rule="evenodd" d="M1142.35 139.442C1137.83 128.522 1135.5 116.819 1135.5 105L1145.5 105C1145.5 115.506 1147.57 125.909 1151.59 135.615C1155.61 145.321 1161.5 154.14 1168.93 161.569C1176.36 168.997 1185.18 174.89 1194.89 178.91C1204.59 182.931 1214.99 185 1225.5 185L1225.5 195C1213.68 195 1201.98 192.672 1191.06 188.149C1180.14 183.626 1170.22 176.997 1161.86 168.64C1153.5 160.282 1146.87 150.361 1142.35 139.442Z" fill="#5DC8B4"/>
<path d="M203.5 10L203.5 1.43051e-05L-81.4995 1.84737e-06C-84.2609 1.72666e-06 -86.4995 2.23857 -86.4995 4.99999C-86.4995 7.76141 -84.2609 9.99999 -81.4995 9.99999L203.5 10Z" fill="#5DC8B4"/>
<path d="M203.5 195L203.5 185L-51.4995 185C-54.2609 185 -56.4995 187.239 -56.4995 190C-56.4995 192.761 -54.2609 195 -51.4995 195L203.5 195Z" fill="#5DC8B4"/>
<rect width="10" height="17" transform="matrix(1 4.37114e-08 4.37114e-08 -1 113.5 106)" fill="#5DC8B4"/>
<path fill-rule="evenodd" clip-rule="evenodd" d="M67.942 6.85084C57.0227 2.32791 45.3195 -1.10468e-05 33.5005 -1.15634e-05L33.5005 9.99999C44.0062 9.99999 54.4091 12.0692 64.1152 16.0896C73.8212 20.11 82.6403 26.0028 90.069 33.4315C97.4977 40.8601 103.39 49.6793 107.411 59.3853C111.431 69.0914 113.5 79.4942 113.5 90L123.5 90C123.5 78.181 121.173 66.4778 116.65 55.5585C112.127 44.6392 105.497 34.7177 97.1401 26.3604C88.7828 18.0031 78.8613 11.3738 67.942 6.85084Z" fill="#5DC8B4"/>
<path fill-rule="evenodd" clip-rule="evenodd" d="M120.351 139.442C115.828 128.522 113.5 116.819 113.5 105L123.5 105C123.5 115.506 125.57 125.909 129.59 135.615C133.61 145.321 139.503 154.14 146.932 161.569C154.361 168.997 163.18 174.89 172.886 178.91C182.592 182.931 192.995 185 203.5 185L203.5 195C191.682 195 179.978 192.672 169.059 188.149C158.14 183.626 148.218 176.997 139.861 168.64C131.504 160.282 124.874 150.361 120.351 139.442Z" fill="#5DC8B4"/>
<rect width="9.99999" height="172" transform="matrix(4.37114e-08 -1 -1 -4.37114e-08 373.5 10)" fill="#5DC8B4"/>
<rect width="9.99999" height="172" transform="matrix(4.37114e-08 -1 -1 -4.37114e-08 373.5 195)" fill="#5DC8B4"/>
<rect width="10" height="19" transform="matrix(1 4.88539e-08 3.91102e-08 -1 283.5 107)" fill="#5DC8B4"/>
<path fill-rule="evenodd" clip-rule="evenodd" d="M237.942 6.85084C227.023 2.32791 215.319 -1.10468e-05 203.5 -1.15634e-05L203.5 9.99999C214.006 9.99999 224.409 12.0692 234.115 16.0896C243.821 20.11 252.64 26.0028 260.069 33.4315C267.498 40.8601 273.39 49.6793 277.411 59.3853C281.431 69.0914 283.5 79.4942 283.5 90L293.5 90C293.5 78.181 291.173 66.4778 286.65 55.5585C282.127 44.6392 275.497 34.7177 267.14 26.3604C258.783 18.0031 248.861 11.3738 237.942 6.85084Z" fill="#5DC8B4"/>
<path fill-rule="evenodd" clip-rule="evenodd" d="M290.351 139.442C285.828 128.522 283.5 116.819 283.5 105L293.5 105C293.5 115.506 295.57 125.909 299.59 135.615C303.61 145.321 309.503 154.14 316.932 161.569C324.361 168.997 333.18 174.89 342.886 178.91C352.592 182.931 362.995 185 373.5 185L373.5 195C361.682 195 349.978 192.672 339.059 188.149C328.14 183.626 318.218 176.997 309.861 168.64C301.504 160.282 294.874 150.361 290.351 139.442Z" fill="#5DC8B4"/>
<rect width="9.99999" height="174" transform="matrix(4.37114e-08 -1 -1 -4.37114e-08 545.5 10)" fill="#5DC8B4"/>
<rect width="9.99999" height="174" transform="matrix(4.37114e-08 -1 -1 -4.37114e-08 545.5 195)" fill="#5DC8B4"/>
<rect width="10" height="19" transform="matrix(1 4.88539e-08 3.91102e-08 -1 455.5 107)" fill="#5DC8B4"/>
<path fill-rule="evenodd" clip-rule="evenodd" d="M409.942 6.85084C399.023 2.32791 387.319 -1.10468e-05 375.5 -1.15634e-05L375.5 9.99999C386.006 9.99999 396.409 12.0692 406.115 16.0896C415.821 20.11 424.64 26.0028 432.069 33.4315C439.498 40.8601 445.39 49.6793 449.411 59.3853C453.431 69.0914 455.5 79.4942 455.5 90L465.5 90C465.5 78.181 463.173 66.4778 458.65 55.5585C454.127 44.6392 447.497 34.7177 439.14 26.3604C430.783 18.0031 420.861 11.3738 409.942 6.85084Z" fill="#5DC8B4"/>
<path fill-rule="evenodd" clip-rule="evenodd" d="M462.351 139.442C457.828 128.522 455.5 116.819 455.5 105L465.5 105C465.5 115.506 467.57 125.909 471.59 135.615C475.61 145.321 481.503 154.14 488.932 161.569C496.361 168.997 505.18 174.89 514.886 178.91C524.592 182.931 534.995 185 545.5 185L545.5 195C533.682 195 521.978 192.672 511.059 188.149C500.14 183.626 490.218 176.997 481.861 168.64C473.504 160.282 466.874 150.361 462.351 139.442Z" fill="#5DC8B4"/>
<rect width="9.99999" height="174" transform="matrix(4.37114e-08 -1 -1 -4.37114e-08 716.5 10)" fill="#5DC8B4"/>
<rect width="9.99999" height="174" transform="matrix(4.37114e-08 -1 -1 -4.37114e-08 716.5 195)" fill="#5DC8B4"/>
<rect width="10" height="19" transform="matrix(1 4.88539e-08 3.91102e-08 -1 626.5 107)" fill="#5DC8B4"/>
<path fill-rule="evenodd" clip-rule="evenodd" d="M580.942 6.85084C570.023 2.32791 558.319 -1.10468e-05 546.5 -1.15634e-05L546.5 9.99999C557.006 9.99999 567.409 12.0692 577.115 16.0896C586.821 20.11 595.64 26.0028 603.069 33.4315C610.498 40.8601 616.39 49.6793 620.411 59.3853C624.431 69.0914 626.5 79.4942 626.5 90L636.5 90C636.5 78.181 634.173 66.4778 629.65 55.5585C625.127 44.6392 618.497 34.7177 610.14 26.3604C601.783 18.0031 591.861 11.3738 580.942 6.85084Z" fill="#5DC8B4"/>
<path fill-rule="evenodd" clip-rule="evenodd" d="M633.351 139.442C628.828 128.522 626.5 116.819 626.5 105L636.5 105C636.5 115.506 638.57 125.909 642.59 135.615C646.61 145.321 652.503 154.14 659.932 161.569C667.361 168.997 676.18 174.89 685.886 178.91C695.592 182.931 705.995 185 716.5 185L716.5 195C704.682 195 692.978 192.672 682.059 188.149C671.14 183.626 661.218 176.997 652.861 168.64C644.504 160.282 637.874 150.361 633.351 139.442Z" fill="#5DC8B4"/>
<rect width="9.99999" height="174" transform="matrix(4.37114e-08 -1 -1 -4.37114e-08 881.5 10)" fill="#5DC8B4"/>
<rect width="9.99999" height="174" transform="matrix(4.37114e-08 -1 -1 -4.37114e-08 881.5 195)" fill="#5DC8B4"/>
<rect width="10" height="19" transform="matrix(1 4.88539e-08 3.91102e-08 -1 791.5 107)" fill="#5DC8B4"/>
<path fill-rule="evenodd" clip-rule="evenodd" d="M745.942 6.85084C735.023 2.32791 723.319 -1.10468e-05 711.5 -1.15634e-05L711.5 9.99999C722.006 9.99999 732.409 12.0692 742.115 16.0896C751.821 20.11 760.64 26.0028 768.069 33.4315C775.498 40.8601 781.39 49.6793 785.411 59.3853C789.431 69.0914 791.5 79.4942 791.5 90L801.5 90C801.5 78.181 799.173 66.4778 794.65 55.5585C790.127 44.6392 783.497 34.7177 775.14 26.3604C766.783 18.0031 756.861 11.3738 745.942 6.85084Z" fill="#5DC8B4"/>
<path fill-rule="evenodd" clip-rule="evenodd" d="M798.351 139.442C793.828 128.522 791.5 116.819 791.5 105L801.5 105C801.5 115.506 803.57 125.909 807.59 135.615C811.61 145.321 817.503 154.14 824.932 161.569C832.361 168.997 841.18 174.89 850.886 178.91C860.592 182.931 870.995 185 881.5 185L881.5 195C869.682 195 857.978 192.672 847.059 188.149C836.14 183.626 826.218 176.997 817.861 168.64C809.504 160.282 802.874 150.361 798.351 139.442Z" fill="#5DC8B4"/>
<path d="M1515.5 195C1518.26 195 1520.5 192.761 1520.5 190C1520.5 187.239 1518.26 185 1515.5 185L1397.5 185L1397.5 195L1515.5 195Z" fill="#5DC8B4"/>
<path d="M1485.5 10C1488.26 10 1490.5 7.76143 1490.5 5.00001C1490.5 2.23858 1488.26 1.13462e-05 1485.5 1.12255e-05L1223.5 -2.26849e-07L1223.5 9.99999L1485.5 10Z" fill="#5DC8B4"/>
<rect width="9.99999" height="176" transform="matrix(4.37114e-08 -1 -1 -4.37114e-08 1399.5 195)" fill="#5DC8B4"/>
<rect width="10" height="19" transform="matrix(1 4.88539e-08 3.91102e-08 -1 1309.5 107)" fill="#5DC8B4"/>
<path fill-rule="evenodd" clip-rule="evenodd" d="M1263.94 6.85084C1253.02 2.32791 1241.32 -1.10468e-05 1229.5 -1.15634e-05L1229.5 9.99999C1240.01 9.99999 1250.41 12.0692 1260.12 16.0896C1269.82 20.11 1278.64 26.0028 1286.07 33.4315C1293.5 40.8601 1299.39 49.6793 1303.41 59.3853C1307.43 69.0914 1309.5 79.4942 1309.5 90L1319.5 90C1319.5 78.181 1317.17 66.4778 1312.65 55.5585C1308.13 44.6392 1301.5 34.7177 1293.14 26.3604C1284.78 18.0031 1274.86 11.3738 1263.94 6.85084Z" fill="#5DC8B4"/>
<path fill-rule="evenodd" clip-rule="evenodd" d="M1316.35 139.442C1311.83 128.522 1309.5 116.819 1309.5 105L1319.5 105C1319.5 115.506 1321.57 125.909 1325.59 135.615C1329.61 145.321 1335.5 154.14 1342.93 161.569C1350.36 168.997 1359.18 174.89 1368.89 178.91C1378.59 182.931 1388.99 185 1399.5 185L1399.5 195C1387.68 195 1375.98 192.672 1365.06 188.149C1354.14 183.626 1344.22 176.997 1335.86 168.64C1327.5 160.282 1320.87 150.361 1316.35 139.442Z" fill="#5DC8B4"/>
</svg>
