<svg width="30" height="31" viewBox="0 0 30 31" fill="none" xmlns="http://www.w3.org/2000/svg">
<path d="M5.625 22.1526C5.44792 22.1526 5.29948 22.0926 5.17969 21.9726C5.0599 21.8527 5 21.704 5 21.5267C5 21.3494 5.0599 21.201 5.17969 21.0816C5.29948 20.9623 5.44792 20.9026 5.625 20.9026H24.375C24.5521 20.9026 24.7005 20.9625 24.8203 21.0825C24.9401 21.2025 25 21.3511 25 21.5284C25 21.7057 24.9401 21.8541 24.8203 21.9735C24.7005 22.0929 24.5521 22.1526 24.375 22.1526H5.625ZM5.625 16.191C5.44792 16.191 5.29948 16.131 5.17969 16.0111C5.0599 15.8911 5 15.7425 5 15.5652C5 15.3878 5.0599 15.2395 5.17969 15.1201C5.29948 15.0007 5.44792 14.941 5.625 14.941H24.375C24.5521 14.941 24.7005 15.001 24.8203 15.121C24.9401 15.2409 25 15.3895 25 15.5669C25 15.7442 24.9401 15.8926 24.8203 16.0119C24.7005 16.1313 24.5521 16.191 24.375 16.191H5.625ZM5.625 10.2295C5.44792 10.2295 5.29948 10.1695 5.17969 10.0496C5.0599 9.9296 5 9.78096 5 9.60365C5 9.42631 5.0599 9.27795 5.17969 9.15855C5.29948 9.03918 5.44792 8.97949 5.625 8.97949H24.375C24.5521 8.97949 24.7005 9.03946 24.8203 9.1594C24.9401 9.27936 25 9.428 25 9.60534C25 9.78265 24.9401 9.931 24.8203 10.0504C24.7005 10.1698 24.5521 10.2295 24.375 10.2295H5.625Z" fill="#161618"/>
</svg>
