<svg width="525" height="631" viewBox="0 0 525 631" fill="none" xmlns="http://www.w3.org/2000/svg">
<path d="M515 336H525V213H515V336Z" fill="#161618"/>
<path d="M323 336H333L333 213H323L323 336Z" fill="#161618"/>
<path d="M439 135V125H411V135H439Z" fill="#161618"/>
<path fill-rule="evenodd" clip-rule="evenodd" d="M518.149 180.558C522.672 191.478 525 203.181 525 215H515C515 204.494 512.931 194.091 508.91 184.385C504.89 174.679 498.997 165.86 491.569 158.431C484.14 151.003 475.321 145.11 465.615 141.09C455.909 137.069 445.506 135 435 135L435 125C446.819 125 458.522 127.328 469.442 131.851C480.361 136.374 490.282 143.003 498.64 151.36C506.997 159.718 513.626 169.639 518.149 180.558Z" fill="#161618"/>
<path fill-rule="evenodd" clip-rule="evenodd" d="M329.851 180.558C325.328 191.478 323 203.181 323 215H333C333 204.494 335.069 194.091 339.09 184.385C343.11 174.679 349.003 165.86 356.431 158.431C363.86 151.003 372.679 145.11 382.385 141.09C392.091 137.069 402.494 135 413 135L413 125C401.181 125 389.478 127.328 378.558 131.851C367.639 136.374 357.718 143.003 349.36 151.36C341.003 159.718 334.374 169.639 329.851 180.558Z" fill="#161618"/>
<path d="M439 416V426H411V416H439Z" fill="#161618"/>
<path fill-rule="evenodd" clip-rule="evenodd" d="M518.149 370.442C522.672 359.522 525 347.819 525 336H515C515 346.506 512.931 356.909 508.91 366.615C504.89 376.321 498.997 385.14 491.569 392.569C484.14 399.997 475.321 405.89 465.615 409.91C455.909 413.931 445.506 416 435 416L435 426C446.819 426 458.522 423.672 469.442 419.149C480.361 414.626 490.282 407.997 498.64 399.64C506.997 391.282 513.626 381.361 518.149 370.442Z" fill="#161618"/>
<path fill-rule="evenodd" clip-rule="evenodd" d="M329.851 370.442C325.328 359.522 323 347.819 323 336H333C333 346.506 335.069 356.909 339.09 366.615C343.11 376.321 349.003 385.14 356.431 392.569C363.86 399.997 372.679 405.89 382.385 409.91C392.091 413.931 402.494 416 413 416L413 426C401.181 426 389.478 423.672 378.558 419.149C367.639 414.626 357.718 407.997 349.36 399.64C341.003 391.282 334.374 381.361 329.851 370.442Z" fill="#161618"/>
<path d="M320 631V621H5C2.23859 621 0 623.239 0 626C0 628.761 2.23859 631 5 631H320Z" fill="#161618"/>
<rect width="10" height="172" transform="matrix(-1 0 0 1 190 370)" fill="#161618"/>
<rect width="10" height="280" transform="matrix(-1 0 0 1 189.779 90)" fill="#161618"/>
<rect width="10" height="53" transform="matrix(0 -1 -1 0 323 10)" fill="#161618"/>
<path d="M484.779 460C487.54 460 489.779 457.761 489.779 455C489.779 452.239 487.54 450 484.779 450H269.779V460H484.779Z" fill="#161618"/>
<rect width="10" height="455" transform="matrix(-1 0 0 1 410 87)" fill="#161618"/>
<path fill-rule="evenodd" clip-rule="evenodd" d="M354.442 6.85084C343.522 2.32791 331.819 -7.62939e-06 320 -7.62939e-06V9.99999C330.506 9.99999 340.909 12.0693 350.615 16.0896C360.321 20.11 369.14 26.0028 376.569 33.4315C383.997 40.8601 389.89 49.6793 393.91 59.3853C397.931 69.0914 400 79.4942 400 90L410 90C410 78.181 407.672 66.4778 403.149 55.5585C398.626 44.6392 391.997 34.7177 383.64 26.3604C375.282 18.0031 365.361 11.3738 354.442 6.85084Z" fill="#161618"/>
<path fill-rule="evenodd" clip-rule="evenodd" d="M235.337 6.85084C246.256 2.32791 257.96 -7.62939e-06 269.779 -7.62939e-06V9.99999C259.273 9.99999 248.87 12.0693 239.164 16.0896C229.458 20.11 220.639 26.0028 213.21 33.4315C205.781 40.8601 199.889 49.6793 195.868 59.3853C191.848 69.0914 189.779 79.4942 189.779 90L179.779 90C179.779 78.181 182.106 66.4778 186.629 55.5585C191.152 44.6392 197.782 34.7177 206.139 26.3604C214.496 18.0031 224.418 11.3738 235.337 6.85084Z" fill="#161618"/>
<path fill-rule="evenodd" clip-rule="evenodd" d="M235.337 453.149C246.256 457.672 257.96 460 269.779 460V450C259.273 450 248.87 447.931 239.164 443.91C229.458 439.89 220.639 433.997 213.21 426.569C205.781 419.14 199.889 410.321 195.868 400.615C191.848 390.909 189.779 380.506 189.779 370L179.779 370C179.779 381.819 182.106 393.522 186.629 404.442C191.152 415.361 197.782 425.282 206.139 433.64C214.496 441.997 224.418 448.626 235.337 453.149Z" fill="#161618"/>
<path fill-rule="evenodd" clip-rule="evenodd" d="M354.442 624.149C343.522 628.672 331.819 631 320 631V621C330.506 621 340.909 618.931 350.615 614.91C360.321 610.89 369.14 604.997 376.569 597.569C383.997 590.14 389.89 581.321 393.91 571.615C397.931 561.909 400 551.506 400 541L410 541C410 552.819 407.672 564.522 403.149 575.442C398.626 586.361 391.997 596.282 383.64 604.64C375.282 612.997 365.361 619.626 354.442 624.149Z" fill="#161618"/>
<path fill-rule="evenodd" clip-rule="evenodd" d="M134.442 624.149C123.522 628.672 111.819 631 100 631V621C110.506 621 120.909 618.931 130.615 614.91C140.321 610.89 149.14 604.997 156.569 597.569C163.997 590.14 169.89 581.321 173.91 571.615C177.931 561.909 180 551.506 180 541L190 541C190 552.819 187.672 564.522 183.149 575.442C178.626 586.361 171.997 596.282 163.64 604.64C155.282 612.997 145.361 619.626 134.442 624.149Z" fill="#161618"/>
<path fill-rule="evenodd" clip-rule="evenodd" d="M269.779 180C220.073 180 179.779 139.706 179.779 90C179.779 40.2944 220.073 0 269.779 0C319.484 0 359.779 40.2944 359.779 90C359.779 139.706 319.484 180 269.779 180ZM269.779 170C225.596 170 189.779 134.183 189.779 90C189.779 45.8172 225.596 10 269.779 10C313.961 10 349.779 45.8172 349.779 90C349.779 134.183 313.961 170 269.779 170Z" fill="#161618"/>
</svg>
