<svg width="457" height="1045" viewBox="0 0 457 1045" fill="none" xmlns="http://www.w3.org/2000/svg">
<path d="M211.623 241L221.623 241L221.623 5C221.623 2.23857 219.384 3.39262e-07 216.623 2.18557e-07C213.861 9.78512e-08 211.623 2.23857 211.623 5L211.623 241Z" fill="#161618"/>
<path d="M0.622803 260L10.6228 260L10.6228 5C10.6228 2.23859 8.38423 3.39262e-07 5.62281 2.18557e-07C2.86139 9.78512e-08 0.622814 2.23859 0.622814 5L0.622803 260Z" fill="#161618"/>
<path d="M10.6228 455H0.622803L0.622803 1040C0.622803 1042.76 2.86138 1045 5.6228 1045C8.38423 1045 10.6228 1042.76 10.6228 1040L10.6228 455Z" fill="#161618"/>
<rect width="9.99999" height="283" transform="matrix(-4.37114e-08 1 1 4.37114e-08 90.6228 535)" fill="#161618"/>
<rect width="9.99999" height="246" transform="matrix(-1 -8.74228e-08 -8.74228e-08 1 456.623 618)" fill="#161618"/>
<rect width="10" height="41" transform="matrix(-4.37114e-08 1 1 4.37114e-08 90.6228 170)" fill="#161618"/>
<rect width="10" height="195" transform="matrix(-1 -4.37114e-08 -4.37114e-08 1 10.6228 260)" fill="#161618"/>
<rect width="9.99998" height="284" transform="matrix(8.74228e-08 -1 -1 -8.74228e-08 367.623 784)" fill="#161618"/>
<rect width="9.99999" height="217" transform="matrix(-1 -4.37114e-08 -4.37114e-08 1 221.623 240)" fill="#161618"/>
<rect width="9.99999" height="246" transform="matrix(-1 -8.74228e-08 -8.74228e-08 1 286.623 619)" fill="#161618"/>
<path fill-rule="evenodd" clip-rule="evenodd" d="M283.093 587.472C278.821 597.785 276.623 608.838 276.623 620L286.623 620C286.623 578.579 320.201 545 361.623 545L361.623 535C350.46 535 339.407 537.199 329.095 541.47C318.782 545.742 309.412 552.003 301.519 559.896C293.626 567.789 287.365 577.159 283.093 587.472Z" fill="#161618"/>
<path fill-rule="evenodd" clip-rule="evenodd" d="M404.151 541.47C393.838 537.199 382.785 535 371.623 535L371.623 545C413.044 545 446.623 578.579 446.623 620L456.623 620C456.623 608.838 454.424 597.785 450.153 587.472C445.881 577.159 439.62 567.789 431.727 559.896C423.834 552.003 414.464 545.742 404.151 541.47Z" fill="#161618"/>
<path fill-rule="evenodd" clip-rule="evenodd" d="M7.09304 826.472C2.8214 836.785 0.622803 847.838 0.622803 859H10.6228C10.6228 817.579 44.2014 784 85.6228 784L85.6228 774C74.4604 774 63.4074 776.199 53.0947 780.47C42.782 784.742 33.4117 791.003 25.5187 798.896C17.6257 806.789 11.3647 816.159 7.09304 826.472Z" fill="#161618"/>
<rect x="367" y="944" width="9.99998" height="284" transform="rotate(90 367 944)" fill="#161618"/>
<path fill-rule="evenodd" clip-rule="evenodd" d="M6.47036 901.528C2.19872 891.215 0.00012207 880.162 0.00012207 869H10.0001C10.0001 910.421 43.5788 944 85.0001 944L85.0001 954C73.8378 954 62.7847 951.801 52.472 947.53C42.1594 943.258 32.789 936.997 24.896 929.104C17.0031 921.211 10.742 911.841 6.47036 901.528Z" fill="#161618"/>
<path fill-rule="evenodd" clip-rule="evenodd" d="M366.623 944C410.806 944 446.623 908.183 446.623 864L456.623 864C456.623 887.87 447.141 910.761 430.262 927.64C413.384 944.518 390.492 954 366.623 954C342.753 954 319.861 944.518 302.983 927.64C286.105 910.761 276.623 887.869 276.623 864L286.623 864C286.623 908.183 322.44 944 366.623 944Z" fill="#161618"/>
<path fill-rule="evenodd" clip-rule="evenodd" d="M401.064 780.851C390.145 776.328 378.442 774 366.623 774L366.623 784C377.129 784 387.531 786.069 397.237 790.09C406.944 794.11 415.763 800.003 423.191 807.431C430.62 814.86 436.513 823.679 440.533 833.385C444.554 843.091 446.623 853.494 446.623 864L456.623 864C456.623 852.181 454.295 840.478 449.772 829.558C445.249 818.639 438.62 808.718 430.262 800.36C421.905 792.003 411.984 785.374 401.064 780.851Z" fill="#161618"/>
<path fill-rule="evenodd" clip-rule="evenodd" d="M267.181 538.149C278.101 542.672 289.804 545 301.623 545L301.623 535C291.117 535 280.714 532.931 271.008 528.91C261.302 524.89 252.483 518.997 245.054 511.569C237.626 504.14 231.733 495.321 227.712 485.615C223.692 475.909 221.623 465.506 221.623 455L211.623 455C211.623 466.819 213.951 478.522 218.474 489.442C222.997 500.361 229.626 510.282 237.983 518.64C246.34 526.997 256.262 533.626 267.181 538.149Z" fill="#161618"/>
<path fill-rule="evenodd" clip-rule="evenodd" d="M214.772 124.442C219.295 113.522 221.623 101.819 221.623 90L211.623 90C211.623 100.506 209.554 110.909 205.533 120.615C201.513 130.321 195.62 139.14 188.191 146.569C180.763 153.997 171.944 159.89 162.237 163.91C152.531 167.931 142.129 170 131.623 170L131.623 180C143.442 180 155.145 177.672 166.064 173.149C176.984 168.626 186.905 161.997 195.262 153.64C203.62 145.282 210.249 135.361 214.772 124.442Z" fill="#161618"/>
<path fill-rule="evenodd" clip-rule="evenodd" d="M56.1813 176.851C67.1006 172.328 78.8038 170 90.6228 170L90.6228 180C80.1171 180 69.7142 182.069 60.0081 186.09C50.3021 190.11 41.4829 196.003 34.0543 203.431C26.6256 210.86 20.7328 219.679 16.7124 229.385C12.6921 239.091 10.6228 249.494 10.6228 260L0.622803 260C0.622803 248.181 2.95072 236.478 7.47365 225.558C11.9966 214.639 18.6259 204.718 26.9832 196.36C35.3405 188.003 45.262 181.374 56.1813 176.851Z" fill="#161618"/>
<path fill-rule="evenodd" clip-rule="evenodd" d="M180.623 455C180.623 504.706 140.328 545 90.6228 545C40.9172 545 0.622797 504.706 0.622799 455C0.622801 405.294 40.9172 365 90.6228 365C140.328 365 180.623 405.294 180.623 455ZM170.623 455C170.623 499.183 134.806 535 90.6228 535C46.44 535 10.6228 499.183 10.6228 455C10.6228 410.817 46.44 375 90.6228 375C134.806 375 170.623 410.817 170.623 455Z" fill="#161618"/>
<rect x="373.623" y="535" width="10" height="15" transform="rotate(90 373.623 535)" fill="#161618"/>
</svg>
