<svg width="526" height="632" viewBox="0 0 526 632" fill="none" xmlns="http://www.w3.org/2000/svg">
<path d="M515.879 336.128H525.879V213.128H515.879V336.128Z" fill="#5DC8B4"/>
<path d="M323.878 336.127H333.878V213.127H323.878V336.127Z" fill="#5DC8B4"/>
<path d="M439.877 135.127V125.127H411.877V135.127H439.877Z" fill="#5DC8B4"/>
<path fill-rule="evenodd" clip-rule="evenodd" d="M519.027 180.686C523.55 191.606 525.878 203.309 525.878 215.128H435.878L435.878 125.128C447.697 125.128 459.4 127.456 470.32 131.979C481.239 136.502 491.16 143.131 499.518 151.488C507.875 159.845 514.504 169.767 519.027 180.686ZM509.79 184.513C513.81 194.219 515.879 204.622 515.879 215.127H435.879L435.879 135.127C446.385 135.127 456.788 137.197 466.494 141.217C476.2 145.237 485.019 151.13 492.448 158.559C499.877 165.988 505.769 174.807 509.79 184.513Z" fill="#5DC8B4"/>
<path fill-rule="evenodd" clip-rule="evenodd" d="M330.733 180.687C326.21 191.606 323.882 203.309 323.882 215.128H413.882L413.882 125.128C402.063 125.128 390.36 127.456 379.44 131.979C368.521 136.502 358.599 143.131 350.242 151.488C341.885 159.846 335.256 169.767 330.733 180.687ZM339.97 184.513C335.95 194.219 333.88 204.622 333.88 215.128H413.88L413.88 135.128C403.375 135.128 392.972 137.197 383.266 141.217C373.56 145.238 364.74 151.131 357.312 158.559C349.883 165.988 343.99 174.807 339.97 184.513Z" fill="#5DC8B4"/>
<path d="M439.881 416.127V426.127H411.881V416.127H439.881Z" fill="#5DC8B4"/>
<path fill-rule="evenodd" clip-rule="evenodd" d="M519.028 370.57C523.551 359.65 525.878 347.947 525.878 336.128H435.878L435.878 426.128C447.697 426.128 459.401 423.8 470.32 419.277C481.239 414.754 491.161 408.125 499.518 399.768C507.875 391.411 514.505 381.489 519.028 370.57ZM509.789 366.743C513.81 357.037 515.879 346.634 515.879 336.129H435.879L435.879 416.129C446.385 416.129 456.788 414.059 466.494 410.039C476.2 406.019 485.019 400.126 492.447 392.697C499.876 385.269 505.769 376.449 509.789 366.743Z" fill="#5DC8B4"/>
<path fill-rule="evenodd" clip-rule="evenodd" d="M330.732 370.57C326.209 359.65 323.881 347.947 323.881 336.128H413.881L413.881 426.128C402.062 426.128 390.359 423.8 379.44 419.277C368.52 414.754 358.599 408.125 350.242 399.768C341.884 391.41 335.255 381.489 330.732 370.57ZM339.971 366.743C335.95 357.037 333.881 346.634 333.881 336.128H413.881L413.881 416.128C403.375 416.128 392.973 414.059 383.266 410.039C373.56 406.018 364.741 400.126 357.313 392.697C349.884 385.268 343.991 376.449 339.971 366.743Z" fill="#5DC8B4"/>
<path d="M320.882 631.127V621.127H5.88184C3.12042 621.127 0.881836 623.366 0.881836 626.127C0.881836 628.888 3.12042 631.127 5.88184 631.127H320.882Z" fill="#5DC8B4"/>
<rect width="10" height="172" transform="matrix(-1 0 0 1 190.881 370.127)" fill="#5DC8B4"/>
<rect width="10" height="280" transform="matrix(-1 0 0 1 190.658 90.127)" fill="#5DC8B4"/>
<rect width="10" height="53" transform="matrix(0 -1 -1 0 323.882 10.1279)" fill="#5DC8B4"/>
<path d="M485.66 460.127C488.421 460.127 490.66 457.888 490.66 455.127C490.66 452.366 488.421 450.127 485.66 450.127H270.66V460.127H485.66Z" fill="#5DC8B4"/>
<rect width="10" height="455" transform="matrix(-1 0 0 1 410.881 87.127)" fill="#5DC8B4"/>
<path fill-rule="evenodd" clip-rule="evenodd" d="M355.325 6.97772C344.406 2.4548 332.703 0.126877 320.884 0.126877V10.1281C331.389 10.1283 341.791 12.1976 351.496 16.2177C361.203 20.2381 370.022 26.1308 377.45 33.5595C384.879 40.9882 390.772 49.8074 394.792 59.5134C398.812 69.2191 400.882 79.6215 400.882 90.1269L410.884 90.1269C410.884 78.3079 408.556 66.6047 404.033 55.6854C399.51 44.7661 392.881 34.8445 384.523 26.4873C376.166 18.13 366.244 11.5006 355.325 6.97772Z" fill="#5DC8B4"/>
<path fill-rule="evenodd" clip-rule="evenodd" d="M236.219 6.9787C247.139 2.45577 258.842 0.127853 270.661 0.127853V90.1279L270.659 90.1279V10.1279C260.153 10.1279 249.75 12.1972 240.044 16.2176C230.338 20.2379 221.519 26.1307 214.091 33.5594C206.662 40.9881 200.769 49.8072 196.749 59.5133C192.728 69.2193 190.659 79.6221 190.659 90.1279L180.661 90.1279C180.661 78.3089 182.989 66.6056 187.512 55.6863C192.035 44.767 198.664 34.8455 207.021 26.4882C215.379 18.131 225.3 11.5016 236.219 6.9787Z" fill="#5DC8B4"/>
<path fill-rule="evenodd" clip-rule="evenodd" d="M236.213 453.276C247.133 457.799 258.836 460.127 270.655 460.127V450.126C260.15 450.126 249.748 448.056 240.042 444.036C230.336 440.016 221.517 434.123 214.088 426.694C206.66 419.266 200.767 410.447 196.747 400.741C192.726 391.035 190.657 380.632 190.657 370.127L180.655 370.127C180.655 381.946 182.983 393.649 187.506 404.569C192.029 415.488 198.658 425.409 207.015 433.767C215.373 442.124 225.294 448.753 236.213 453.276Z" fill="#5DC8B4"/>
<path fill-rule="evenodd" clip-rule="evenodd" d="M355.323 624.278C344.403 628.801 332.7 631.128 320.881 631.128V541.128L320.883 541.128V621.128C331.389 621.128 341.792 619.059 351.498 615.039C361.204 611.018 370.023 605.126 377.451 597.697C384.88 590.268 390.773 581.449 394.793 571.743C398.814 562.037 400.883 551.634 400.883 541.128L410.881 541.128C410.881 552.947 408.553 564.651 404.03 575.57C399.507 586.489 392.878 596.411 384.521 604.768C376.163 613.125 366.242 619.755 355.323 624.278Z" fill="#5DC8B4"/>
<path fill-rule="evenodd" clip-rule="evenodd" d="M135.32 624.278C124.4 628.801 112.697 631.128 100.878 631.128L100.878 541.128L190.878 541.128C190.878 552.947 188.55 564.651 184.027 575.57C179.504 586.489 172.875 596.411 164.518 604.768C156.16 613.125 146.239 619.755 135.32 624.278ZM131.495 615.039C121.789 619.06 111.386 621.129 100.881 621.129L100.881 541.129L180.881 541.129C180.881 551.635 178.811 562.038 174.791 571.744C170.771 581.45 164.878 590.269 157.449 597.697C150.021 605.126 141.201 611.019 131.495 615.039Z" fill="#5DC8B4"/>
<path fill-rule="evenodd" clip-rule="evenodd" d="M270.659 180.128C220.953 180.128 180.659 139.834 180.659 90.1279C180.659 40.4223 220.953 0.12793 270.659 0.12793C320.364 0.12793 360.659 40.4223 360.659 90.1279C360.659 139.834 320.364 180.128 270.659 180.128ZM270.658 170.128C226.475 170.128 190.658 134.311 190.658 90.1282C190.658 45.9454 226.475 10.1282 270.658 10.1282C314.841 10.1282 350.658 45.9454 350.658 90.1282C350.658 134.311 314.841 170.128 270.658 170.128Z" fill="#5DC8B4"/>
</svg>
