<svg width="31" height="30" viewBox="0 0 31 30" fill="none" xmlns="http://www.w3.org/2000/svg">
<path d="M15.8 15.8846L9.24236 22.4423C9.12538 22.5593 8.98195 22.6218 8.81208 22.6298C8.6422 22.6378 8.49076 22.5753 8.35773 22.4423C8.22471 22.3093 8.1582 22.1619 8.1582 22C8.1582 21.8381 8.22471 21.6907 8.35773 21.5577L14.9154 15L8.35773 8.44231C8.24076 8.32533 8.17826 8.1819 8.17023 8.01203C8.16221 7.84215 8.22471 7.69071 8.35773 7.55769C8.49076 7.42467 8.63819 7.35815 8.80005 7.35815C8.9619 7.35815 9.10934 7.42467 9.24236 7.55769L15.8 14.1154L22.3577 7.55769C22.4747 7.44071 22.6181 7.37821 22.788 7.37019C22.9579 7.36217 23.1093 7.42467 23.2424 7.55769C23.3754 7.69071 23.4419 7.83814 23.4419 8C23.4419 8.16185 23.3754 8.30929 23.2424 8.44231L16.6847 15L23.2424 21.5577C23.3593 21.6747 23.4218 21.8181 23.4299 21.988C23.4379 22.1578 23.3754 22.3093 23.2424 22.4423C23.1093 22.5753 22.9619 22.6418 22.8 22.6418C22.6382 22.6418 22.4908 22.5753 22.3577 22.4423L15.8 15.8846Z" fill="#5DC8B4"/>
</svg>
