<svg width="631" height="998" viewBox="0 0 631 998" fill="none" xmlns="http://www.w3.org/2000/svg">
<path d="M211 384.798H221V5C221 2.23858 218.761 0 216 0V0C213.239 0 211 2.23858 211 5V384.798Z" fill="#161618"/>
<path d="M630 551H620V993C620 995.761 622.239 998 625 998V998C627.761 998 630 995.761 630 993V551Z" fill="#161618"/>
<path d="M10 551H0L0 993C0 995.761 2.23858 998 5 998V998C7.76142 998 10 995.761 10 993L10 551Z" fill="#161618"/>
<rect width="10.0733" height="171.91" transform="matrix(0 1 1 0 370.136 681.96)" fill="#161618"/>
<rect width="10.0733" height="279.853" transform="matrix(0 1 1 0 90.6143 682.183)" fill="#161618"/>
<rect width="10.0733" height="40.9785" transform="matrix(0 1 1 0 90.2836 314.286)" fill="#161618"/>
<rect width="9.99475" height="196.429" transform="matrix(-1 0 0 1 10.3256 404.945)" fill="#161618"/>
<rect width="9.99475" height="221.612" transform="matrix(-1 0 0 1 460.42 379.985)" fill="#161618"/>
<rect width="10.0733" height="243.872" transform="matrix(0 1 1 0 296.506 460.571)" fill="#161618"/>
<path fill-rule="evenodd" clip-rule="evenodd" d="M263.995 464.127C274.302 468.43 285.35 470.644 296.506 470.644V460.571C296.506 460.571 296.506 460.571 296.506 460.571C255.106 460.571 221.545 426.746 221.545 385.022C221.545 385.022 221.545 385.022 221.545 385.022L211.551 385.022C211.551 396.266 213.748 407.4 218.018 417.788C222.287 428.176 228.545 437.615 236.434 445.566C244.322 453.517 253.688 459.824 263.995 464.127Z" fill="#161618"/>
<path fill-rule="evenodd" clip-rule="evenodd" d="M540.378 460.571L540.378 470.644C564.235 470.644 587.114 461.093 603.984 444.091C620.853 427.089 630.33 404.029 630.33 379.985C630.33 355.941 620.853 332.881 603.984 315.879C587.115 298.877 564.235 289.326 540.378 289.326L540.378 299.399C584.537 299.399 620.336 335.479 620.336 379.985C620.336 424.491 584.537 460.571 540.378 460.571Z" fill="#161618"/>
<path fill-rule="evenodd" clip-rule="evenodd" d="M457.272 345.291C452.752 356.29 450.425 368.079 450.425 379.985H460.42C460.42 369.402 462.488 358.923 466.506 349.146C470.524 339.369 476.414 330.485 483.839 323.002C491.263 315.519 500.078 309.583 509.779 305.533C519.48 301.483 529.877 299.399 540.378 299.399L540.378 379.985H540.378L540.378 289.326C528.565 289.326 516.868 291.671 505.954 296.227C495.041 300.783 485.124 307.461 476.771 315.879C468.419 324.298 461.793 334.292 457.272 345.291Z" fill="#161618"/>
<path fill-rule="evenodd" clip-rule="evenodd" d="M165.686 317.458C176.599 312.902 186.515 306.224 194.868 297.805C203.221 289.387 209.847 279.393 214.368 268.393C218.888 257.394 221.215 245.605 221.215 233.7L211.22 233.7C211.22 244.282 209.152 254.761 205.134 264.539C201.115 274.316 195.226 283.199 187.801 290.683C180.376 298.166 171.562 304.102 161.861 308.151C152.16 312.201 141.762 314.286 131.262 314.286L131.262 233.7L131.262 324.359C143.075 324.359 154.772 322.014 165.686 317.458Z" fill="#161618"/>
<path fill-rule="evenodd" clip-rule="evenodd" d="M7.17806 370.251C11.6986 359.252 18.3245 349.258 26.6774 340.839C35.0303 332.421 44.9466 325.743 55.8601 321.187C66.7737 316.631 78.4708 314.286 90.2836 314.286V324.359C79.7833 324.359 69.3859 326.443 59.685 330.493C49.984 334.543 41.1695 340.479 33.7447 347.962C26.3199 355.445 20.4303 364.329 16.412 374.106C12.3937 383.883 10.3256 394.362 10.3256 404.945L90.2836 404.945L0.330811 404.945C0.330811 393.039 2.65751 381.25 7.17806 370.251Z" fill="#161618"/>
<path fill-rule="evenodd" clip-rule="evenodd" d="M56.1908 685.355C45.2773 680.799 35.3609 674.121 27.008 665.702C18.6552 657.284 12.0293 647.29 7.50873 636.29C2.98819 625.291 0.661487 613.502 0.661487 601.597L10.6563 601.597C10.6563 612.179 12.7245 622.658 16.7427 632.436C20.761 642.213 26.6506 651.096 34.0754 658.58C41.5002 666.063 50.3147 671.999 60.0157 676.048C69.7166 680.098 80.114 682.183 90.6143 682.183L90.6143 692.256C78.8015 692.256 67.1044 689.911 56.1908 685.355Z" fill="#161618"/>
<path fill-rule="evenodd" clip-rule="evenodd" d="M404.89 685.355C415.804 680.799 425.72 674.121 434.073 665.702C442.426 657.284 449.052 647.29 453.573 636.29C458.093 625.291 460.42 613.502 460.42 601.597L450.425 601.597C450.425 612.179 448.357 622.658 444.339 632.436C440.32 642.213 434.431 651.096 427.006 658.58C419.581 666.063 410.767 671.999 401.066 676.048C391.365 680.098 380.967 682.183 370.467 682.183L370.467 601.597L370.467 692.256C382.28 692.256 393.977 689.911 404.89 685.355Z" fill="#161618"/>
<path fill-rule="evenodd" clip-rule="evenodd" d="M623.483 516.536C628.004 527.536 630.33 539.325 630.33 551.23L620.336 551.23C620.336 540.648 618.267 530.169 614.249 520.391C610.231 510.614 604.341 501.73 596.916 494.247C589.492 486.764 580.677 480.828 570.976 476.778C561.275 472.729 550.878 470.644 540.378 470.644L540.378 460.571C552.19 460.571 563.888 462.916 574.801 467.472C585.715 472.028 595.631 478.706 603.984 487.124C612.337 495.543 618.963 505.537 623.483 516.536Z" fill="#161618"/>
<path fill-rule="evenodd" clip-rule="evenodd" d="M623.483 737.925C628.004 748.924 630.33 760.713 630.33 772.619H540.378L620.336 772.619C620.336 762.036 618.267 751.557 614.249 741.78C610.231 732.003 604.341 723.119 596.916 715.636C589.492 708.153 580.677 702.217 570.976 698.167C561.275 694.117 550.878 692.033 540.378 692.033L540.378 681.96C552.19 681.96 563.888 684.305 574.801 688.861C585.715 693.417 595.631 700.095 603.984 708.513C612.337 716.932 618.963 726.926 623.483 737.925Z" fill="#161618"/>
<path fill-rule="evenodd" clip-rule="evenodd" d="M180.567 601.597C180.567 651.666 140.294 692.256 90.6141 692.256C40.9346 692.256 0.661377 651.666 0.661377 601.597C0.661377 551.527 40.9346 510.937 90.6141 510.937C140.294 510.937 180.567 551.527 180.567 601.597ZM170.572 601.597C170.572 646.103 134.774 682.183 90.6143 682.183C46.4547 682.183 10.6562 646.103 10.6562 601.597C10.6562 557.09 46.4547 521.011 90.6143 521.011C134.774 521.011 170.572 557.09 170.572 601.597Z" fill="#161618"/>
</svg>
