<svg width="41" height="24" viewBox="0 0 41 24" fill="none" xmlns="http://www.w3.org/2000/svg">
<path d="M1.8944 3.25374C1.79733 3.48947 1.7488 3.69747 1.7488 3.87774C1.7488 4.058 1.80427 4.14814 1.9152 4.14814C1.88747 4.34227 1.73493 4.43933 1.4576 4.43933C1.1248 4.43933 0.9584 4.2036 0.9584 3.73214C0.9584 3.26067 1.23573 2.80307 1.7904 2.35933C2.35893 1.9156 3.10773 1.69374 4.0368 1.69374C5.16 1.69374 6.12373 2.2276 6.928 3.29533C7.74613 4.3492 8.4672 5.79827 9.0912 7.64253C11.1019 4.9108 12.5856 3.03187 13.5424 2.00573C14.5131 0.979602 15.3451 0.459602 16.0384 0.445735C16.288 0.445735 16.4891 0.528935 16.6416 0.695336C16.7941 0.861736 16.8773 1.02814 16.8912 1.19454L16.9328 1.44413C15.8928 1.44413 14.6795 2.17213 13.2928 3.62814C12.128 4.8484 10.8107 6.43614 9.3408 8.39134C9.5904 9.18174 9.86773 10.1524 10.1728 11.3033C10.4917 12.4404 10.7552 13.4041 10.9632 14.1945C11.1851 14.9711 11.4277 15.7407 11.6912 16.5033C12.232 18.0564 12.8213 18.8329 13.4592 18.8329C13.8059 18.8329 14.0832 18.7012 14.2912 18.4377C14.416 18.4377 14.4437 18.5556 14.3744 18.7913C14.2496 19.2351 13.8405 19.4777 13.1472 19.5193C12.232 19.5193 11.4347 18.9231 10.7552 17.7305C9.99253 16.3855 9.1952 14.1113 8.3632 10.9081C8.26613 10.5199 8.18987 10.2287 8.1344 10.0345C6.512 12.2532 5.43733 13.6537 4.9104 14.2361C4.38347 14.8185 3.93973 15.29 3.5792 15.6505C2.89973 16.2884 2.30347 16.6073 1.7904 16.6073C1.4992 16.6073 1.2704 16.5241 1.104 16.3577C0.9376 16.1913 0.847467 16.0249 0.8336 15.8585L0.792 15.6089C1.73493 15.6089 2.78187 15.0543 3.9328 13.9449C5.08373 12.8217 6.408 11.2548 7.9056 9.24413C6.92107 5.722 5.9504 3.55187 4.9936 2.73373C4.5776 2.3732 4.12 2.19293 3.6208 2.19293C2.77493 2.19293 2.19947 2.54654 1.8944 3.25374ZM16.5254 22.8681C17.4822 22.8681 18.335 22.6185 19.0838 22.1193C19.8465 21.6201 20.4497 21.0793 20.8934 20.4969C21.3371 19.9145 21.7601 19.0132 22.1622 17.7929C22.5643 16.5727 22.8347 15.6367 22.9734 14.9849C23.1259 14.3332 23.2715 13.626 23.4102 12.8633C23.5627 12.1007 23.6459 11.6916 23.6598 11.6361C23.6737 11.5807 23.6875 11.5183 23.7014 11.4489C23.7153 11.3657 23.7361 11.2479 23.7638 11.0953C23.7915 10.9428 23.847 10.6585 23.9302 10.2425H23.7846C21.8433 14.0143 20.2763 15.9001 19.0838 15.9001C17.6971 15.9001 17.0038 15.0681 17.0038 13.4041C17.0038 12.6553 17.3505 11.0745 18.0438 8.66174C18.7371 6.23507 19.0838 4.474 19.0838 3.37853C19.0838 2.67134 18.9174 2.1028 18.5846 1.67294C18.2657 1.2292 17.7526 1.00733 17.0454 1.00733C15.7835 1.00733 14.8406 1.7284 14.2166 3.17054C13.8006 4.1412 13.5926 5.11187 13.5926 6.08253C13.5926 6.554 13.6411 7.02547 13.7382 7.49693C14.0433 8.93907 14.6881 9.66013 15.6726 9.66013C15.5755 9.85427 15.4438 9.95134 15.2774 9.95134C14.0294 9.95134 13.2182 9.16094 12.8438 7.58014C12.719 7.08094 12.6566 6.58174 12.6566 6.08253C12.6566 5.0148 12.927 3.94014 13.4678 2.85854C14.2721 1.27774 15.4577 0.487335 17.0246 0.487335C18.231 0.487335 19.1046 0.827069 19.6454 1.50654C20.2001 2.17214 20.4774 3.04574 20.4774 4.12734C20.4774 5.19507 20.1515 6.9076 19.4998 9.26494C18.8619 11.6084 18.543 13.1823 18.543 13.9865C18.543 14.7769 18.8134 15.1721 19.3542 15.1721C19.8118 15.1721 20.4566 14.5135 21.2886 13.1961C22.6475 11.1023 23.8262 8.8212 24.8246 6.35293C25.2129 5.38227 25.6497 4.89693 26.135 4.89693C26.4401 4.89693 26.5926 5.0564 26.5926 5.37534C26.1073 6.554 25.6219 8.53 25.1366 11.3033C24.5681 14.5481 23.9787 16.8708 23.3686 18.2713C23.1051 18.8815 22.7515 19.5332 22.3078 20.2265C21.8641 20.9337 21.3787 21.4884 20.8518 21.8905C20.3387 22.3065 19.7078 22.6532 18.959 22.9305C18.2241 23.2079 17.4198 23.3465 16.5462 23.3465C14.4246 23.3465 12.9339 22.6255 12.0742 21.1833C11.6721 20.49 11.471 19.7481 11.471 18.9577C11.471 18.5279 11.5334 18.0841 11.6582 17.6265C11.9771 16.4617 12.5803 15.6644 13.4678 15.2345C13.8422 15.0543 14.175 14.9641 14.4662 14.9641C14.9238 14.9641 15.1942 15.0959 15.2774 15.3593L15.319 15.5049C14.3622 15.5049 13.6134 16.0041 13.0726 17.0025C12.7259 17.6543 12.5526 18.2505 12.5526 18.7913C12.5526 20.8575 13.3846 22.1471 15.0486 22.6601C15.4923 22.7988 15.9846 22.8681 16.5254 22.8681ZM32.2101 0.487335C32.945 0.487335 33.9226 0.653735 35.1429 0.986535C36.3631 1.30547 37.1535 1.46493 37.5141 1.46493C37.8885 1.46493 38.2837 1.29854 38.6997 0.965736C39.1157 0.632935 39.4831 0.466535 39.8021 0.466535C39.9269 0.466535 40.0239 0.535869 40.0933 0.674536C40.1765 0.813202 40.2111 0.944936 40.1973 1.06974C40.1834 1.18067 40.1765 1.24307 40.1765 1.25693C39.7327 1.25693 39.2127 1.7908 38.6165 2.85854C38.1727 3.63507 37.6319 4.69587 36.9941 6.04093C36.3701 7.37214 35.9263 8.30814 35.6629 8.84894C36.3839 8.8212 36.8693 8.80734 37.1189 8.80734C37.2575 8.80734 37.313 8.89054 37.2853 9.05693C37.2714 9.22334 37.1674 9.30654 36.9733 9.30654C36.793 9.30654 36.6266 9.31347 36.4741 9.32733C36.3354 9.3412 36.1482 9.35507 35.9125 9.36893C35.6906 9.3828 35.5103 9.39667 35.3717 9.41054C33.6106 12.8911 31.8911 15.2553 30.2133 16.5033C30.6431 16.6975 31.5583 17.1412 32.9589 17.8345C34.3733 18.5279 35.4757 19.0201 36.2661 19.3113C37.0565 19.6164 37.6666 19.7689 38.0965 19.7689C38.5263 19.7689 38.8661 19.7273 39.1157 19.6441C39.3653 19.5748 39.5594 19.4847 39.6981 19.3737C39.9754 19.1519 40.1626 18.9092 40.2597 18.6457C40.4815 18.6457 40.5925 18.8191 40.5925 19.1657C40.5925 19.7481 40.3359 20.2127 39.8229 20.5593C39.3098 20.9199 38.7205 21.1001 38.0549 21.1001C37.3893 21.1001 36.6405 20.9476 35.8085 20.6425C34.9765 20.3375 34.2901 20.0393 33.7493 19.7481C33.2223 19.4569 32.425 18.9855 31.3573 18.3337C30.3034 17.682 29.6239 17.266 29.3189 17.0857C28.473 17.5295 27.6479 17.7513 26.8437 17.7513C25.6789 17.7513 24.9301 17.4463 24.5973 16.8361C24.5002 16.6697 24.4517 16.4895 24.4517 16.2953C24.4517 16.0873 24.5834 15.8655 24.8469 15.6297C25.1103 15.3801 25.5749 15.2553 26.2405 15.2553C26.9199 15.2553 27.9461 15.5465 29.3189 16.1289C30.5807 15.0612 32.0437 12.8911 33.7077 9.61854C33.0421 9.70173 32.4527 9.74333 31.9397 9.74333C31.4405 9.74333 31.1631 9.57693 31.1077 9.24413C31.1215 9.03613 31.2047 8.91133 31.3573 8.86973C31.4266 8.95294 31.7039 8.99454 32.1893 8.99454C32.6746 8.99454 33.2986 8.97374 34.0613 8.93214C34.2693 8.53 34.5813 7.91294 34.9973 7.08094C35.4133 6.23507 35.7391 5.58333 35.9749 5.12573C36.585 3.8916 37.1535 2.90013 37.6805 2.15134C37.3754 2.22067 37.0426 2.25534 36.6821 2.25534C36.3354 2.25534 35.545 2.08894 34.3109 1.75614C33.0767 1.42333 32.1477 1.25693 31.5237 1.25693C29.9429 1.25693 28.8266 1.90867 28.1749 3.21214C27.8421 3.86387 27.6757 4.46014 27.6757 5.00094C27.6757 5.52787 27.7242 5.98547 27.8213 6.37374C28.0709 7.31667 28.5215 7.8644 29.1733 8.01694L29.5061 8.05853C29.4367 8.37747 29.2079 8.53694 28.8197 8.53694C28.0015 8.53694 27.4122 8.06547 27.0517 7.12254C26.8853 6.65107 26.8021 6.138 26.8021 5.58333C26.8021 5.02867 26.9269 4.41853 27.1765 3.75293C27.7311 2.3108 28.7226 1.34014 30.1509 0.840935C30.8026 0.605202 31.489 0.487335 32.2101 0.487335ZM25.0341 16.3785C25.0341 16.6281 25.2074 16.8223 25.5541 16.9609C25.9007 17.1135 26.3375 17.1897 26.8645 17.1897C27.3914 17.1897 27.9599 17.0095 28.5701 16.6489C27.3775 16.0665 26.5178 15.7753 25.9909 15.7753C25.4778 15.7753 25.1658 15.9209 25.0549 16.2121C25.041 16.2676 25.0341 16.3231 25.0341 16.3785Z" fill="#161618"/>
</svg>
