<svg width="41" height="24" viewBox="0 0 41 24" fill="none" xmlns="http://www.w3.org/2000/svg">
<path d="M1.8944 3.25392C1.79733 3.48965 1.7488 3.69765 1.7488 3.87792C1.7488 4.05819 1.80427 4.14832 1.9152 4.14832C1.88747 4.34245 1.73493 4.43952 1.4576 4.43952C1.1248 4.43952 0.9584 4.20378 0.9584 3.73232C0.9584 3.26085 1.23573 2.80325 1.7904 2.35952C2.35893 1.91579 3.10773 1.69392 4.0368 1.69392C5.16 1.69392 6.12373 2.22779 6.928 3.29552C7.74613 4.34938 8.4672 5.79845 9.0912 7.64272C11.1019 4.91098 12.5856 3.03205 13.5424 2.00592C14.5131 0.979785 15.3451 0.459785 16.0384 0.445918C16.288 0.445918 16.4891 0.529118 16.6416 0.695519C16.7941 0.861919 16.8773 1.02832 16.8912 1.19472L16.9328 1.44432C15.8928 1.44432 14.6795 2.17232 13.2928 3.62832C12.128 4.84858 10.8107 6.43632 9.3408 8.39152C9.5904 9.18192 9.86773 10.1526 10.1728 11.3035C10.4917 12.4406 10.7552 13.4043 10.9632 14.1947C11.1851 14.9713 11.4277 15.7409 11.6912 16.5035C12.232 18.0566 12.8213 18.8331 13.4592 18.8331C13.8059 18.8331 14.0832 18.7014 14.2912 18.4379C14.416 18.4379 14.4437 18.5558 14.3744 18.7915C14.2496 19.2353 13.8405 19.4779 13.1472 19.5195C12.232 19.5195 11.4347 18.9233 10.7552 17.7307C9.99253 16.3857 9.1952 14.1115 8.3632 10.9083C8.26613 10.5201 8.18987 10.2289 8.1344 10.0347C6.512 12.2534 5.43733 13.6539 4.9104 14.2363C4.38347 14.8187 3.93973 15.2902 3.5792 15.6507C2.89973 16.2886 2.30347 16.6075 1.7904 16.6075C1.4992 16.6075 1.2704 16.5243 1.104 16.3579C0.9376 16.1915 0.847467 16.0251 0.8336 15.8587L0.792 15.6091C1.73493 15.6091 2.78187 15.0545 3.9328 13.9451C5.08373 12.8219 6.408 11.255 7.9056 9.24432C6.92107 5.72218 5.9504 3.55205 4.9936 2.73392C4.5776 2.37338 4.12 2.19312 3.6208 2.19312C2.77493 2.19312 2.19947 2.54672 1.8944 3.25392ZM16.5254 22.8683C17.4822 22.8683 18.335 22.6187 19.0838 22.1195C19.8465 21.6203 20.4497 21.0795 20.8934 20.4971C21.3371 19.9147 21.7601 19.0134 22.1622 17.7931C22.5643 16.5729 22.8347 15.6369 22.9734 14.9851C23.1259 14.3334 23.2715 13.6262 23.4102 12.8635C23.5627 12.1009 23.6459 11.6918 23.6598 11.6363C23.6737 11.5809 23.6875 11.5185 23.7014 11.4491C23.7153 11.3659 23.7361 11.2481 23.7638 11.0955C23.7915 10.943 23.847 10.6587 23.9302 10.2427H23.7846C21.8433 14.0145 20.2763 15.9003 19.0838 15.9003C17.6971 15.9003 17.0038 15.0683 17.0038 13.4043C17.0038 12.6555 17.3505 11.0747 18.0438 8.66192C18.7371 6.23525 19.0838 4.47419 19.0838 3.37872C19.0838 2.67152 18.9174 2.10299 18.5846 1.67312C18.2657 1.22938 17.7526 1.00752 17.0454 1.00752C15.7835 1.00752 14.8406 1.72859 14.2166 3.17072C13.8006 4.14139 13.5926 5.11205 13.5926 6.08272C13.5926 6.55418 13.6411 7.02565 13.7382 7.49712C14.0433 8.93925 14.6881 9.66032 15.6726 9.66032C15.5755 9.85445 15.4438 9.95152 15.2774 9.95152C14.0294 9.95152 13.2182 9.16112 12.8438 7.58032C12.719 7.08112 12.6566 6.58192 12.6566 6.08272C12.6566 5.01498 12.927 3.94032 13.4678 2.85872C14.2721 1.27792 15.4577 0.487519 17.0246 0.487519C18.231 0.487519 19.1046 0.827252 19.6454 1.50672C20.2001 2.17232 20.4774 3.04592 20.4774 4.12752C20.4774 5.19525 20.1515 6.90778 19.4998 9.26512C18.8619 11.6086 18.543 13.1825 18.543 13.9867C18.543 14.7771 18.8134 15.1723 19.3542 15.1723C19.8118 15.1723 20.4566 14.5137 21.2886 13.1963C22.6475 11.1025 23.8262 8.82138 24.8246 6.35312C25.2129 5.38245 25.6497 4.89712 26.135 4.89712C26.4401 4.89712 26.5926 5.05658 26.5926 5.37552C26.1073 6.55418 25.6219 8.53018 25.1366 11.3035C24.5681 14.5483 23.9787 16.871 23.3686 18.2715C23.1051 18.8817 22.7515 19.5334 22.3078 20.2267C21.8641 20.9339 21.3787 21.4886 20.8518 21.8907C20.3387 22.3067 19.7078 22.6534 18.959 22.9307C18.2241 23.2081 17.4198 23.3467 16.5462 23.3467C14.4246 23.3467 12.9339 22.6257 12.0742 21.1835C11.6721 20.4902 11.471 19.7483 11.471 18.9579C11.471 18.5281 11.5334 18.0843 11.6582 17.6267C11.9771 16.4619 12.5803 15.6646 13.4678 15.2347C13.8422 15.0545 14.175 14.9643 14.4662 14.9643C14.9238 14.9643 15.1942 15.0961 15.2774 15.3595L15.319 15.5051C14.3622 15.5051 13.6134 16.0043 13.0726 17.0027C12.7259 17.6545 12.5526 18.2507 12.5526 18.7915C12.5526 20.8577 13.3846 22.1473 15.0486 22.6603C15.4923 22.799 15.9846 22.8683 16.5254 22.8683ZM32.2101 0.487519C32.945 0.487519 33.9226 0.653918 35.1429 0.986718C36.3631 1.30565 37.1535 1.46512 37.5141 1.46512C37.8885 1.46512 38.2837 1.29872 38.6997 0.965919C39.1157 0.633118 39.4831 0.466718 39.8021 0.466718C39.9269 0.466718 40.0239 0.536052 40.0933 0.674719C40.1765 0.813386 40.2111 0.945119 40.1973 1.06992C40.1834 1.18085 40.1765 1.24325 40.1765 1.25712C39.7327 1.25712 39.2127 1.79098 38.6165 2.85872C38.1727 3.63525 37.6319 4.69605 36.9941 6.04112C36.3701 7.37232 35.9263 8.30832 35.6629 8.84912C36.3839 8.82139 36.8693 8.80752 37.1189 8.80752C37.2575 8.80752 37.313 8.89072 37.2853 9.05712C37.2714 9.22352 37.1674 9.30672 36.9733 9.30672C36.793 9.30672 36.6266 9.31365 36.4741 9.32752C36.3354 9.34138 36.1482 9.35525 35.9125 9.36912C35.6906 9.38298 35.5103 9.39685 35.3717 9.41072C33.6106 12.8913 31.8911 15.2555 30.2133 16.5035C30.6431 16.6977 31.5583 17.1414 32.9589 17.8347C34.3733 18.5281 35.4757 19.0203 36.2661 19.3115C37.0565 19.6166 37.6666 19.7691 38.0965 19.7691C38.5263 19.7691 38.8661 19.7275 39.1157 19.6443C39.3653 19.575 39.5594 19.4849 39.6981 19.3739C39.9754 19.1521 40.1626 18.9094 40.2597 18.6459C40.4815 18.6459 40.5925 18.8193 40.5925 19.1659C40.5925 19.7483 40.3359 20.2129 39.8229 20.5595C39.3098 20.9201 38.7205 21.1003 38.0549 21.1003C37.3893 21.1003 36.6405 20.9478 35.8085 20.6427C34.9765 20.3377 34.2901 20.0395 33.7493 19.7483C33.2223 19.4571 32.425 18.9857 31.3573 18.3339C30.3034 17.6822 29.6239 17.2662 29.3189 17.0859C28.473 17.5297 27.6479 17.7515 26.8437 17.7515C25.6789 17.7515 24.9301 17.4465 24.5973 16.8363C24.5002 16.6699 24.4517 16.4897 24.4517 16.2955C24.4517 16.0875 24.5834 15.8657 24.8469 15.6299C25.1103 15.3803 25.5749 15.2555 26.2405 15.2555C26.9199 15.2555 27.9461 15.5467 29.3189 16.1291C30.5807 15.0614 32.0437 12.8913 33.7077 9.61872C33.0421 9.70192 32.4527 9.74352 31.9397 9.74352C31.4405 9.74352 31.1631 9.57712 31.1077 9.24432C31.1215 9.03632 31.2047 8.91152 31.3573 8.86992C31.4266 8.95312 31.7039 8.99472 32.1893 8.99472C32.6746 8.99472 33.2986 8.97392 34.0613 8.93232C34.2693 8.53018 34.5813 7.91312 34.9973 7.08112C35.4133 6.23525 35.7391 5.58352 35.9749 5.12592C36.585 3.89178 37.1535 2.90032 37.6805 2.15152C37.3754 2.22085 37.0426 2.25552 36.6821 2.25552C36.3354 2.25552 35.545 2.08912 34.3109 1.75632C33.0767 1.42352 32.1477 1.25712 31.5237 1.25712C29.9429 1.25712 28.8266 1.90885 28.1749 3.21232C27.8421 3.86405 27.6757 4.46032 27.6757 5.00112C27.6757 5.52805 27.7242 5.98565 27.8213 6.37392C28.0709 7.31685 28.5215 7.86458 29.1733 8.01712L29.5061 8.05872C29.4367 8.37765 29.2079 8.53712 28.8197 8.53712C28.0015 8.53712 27.4122 8.06565 27.0517 7.12272C26.8853 6.65125 26.8021 6.13818 26.8021 5.58352C26.8021 5.02885 26.9269 4.41872 27.1765 3.75312C27.7311 2.31099 28.7226 1.34032 30.1509 0.841118C30.8026 0.605385 31.489 0.487519 32.2101 0.487519ZM25.0341 16.3787C25.0341 16.6283 25.2074 16.8225 25.5541 16.9611C25.9007 17.1137 26.3375 17.1899 26.8645 17.1899C27.3914 17.1899 27.9599 17.0097 28.5701 16.6491C27.3775 16.0667 26.5178 15.7755 25.9909 15.7755C25.4778 15.7755 25.1658 15.9211 25.0549 16.2123C25.041 16.2678 25.0341 16.3233 25.0341 16.3787Z" fill="#5DC8B4"/>
</svg>
