<svg width="383" height="221" viewBox="0 0 383 221" fill="none" xmlns="http://www.w3.org/2000/svg">
<path d="M5.00001 211C2.23858 211 -9.78513e-08 213.239 -2.18557e-07 216C-3.39263e-07 218.761 2.23858 221 5 221L378 221C380.761 221 383 218.761 383 216C383 213.239 380.761 211 378 211L5.00001 211Z" fill="#5DC8B4"/>
<rect width="10" height="41" transform="matrix(-1 -4.37114e-08 -4.37114e-08 1 296 90)" fill="#5DC8B4"/>
<path fill-rule="evenodd" clip-rule="evenodd" d="M341.558 214.149C352.478 218.672 364.181 221 376 221L376 211C365.494 211 355.091 208.931 345.385 204.91C335.679 200.89 326.86 194.997 319.431 187.568C312.003 180.14 306.11 171.32 302.09 161.614C298.069 151.908 296 141.506 296 131L286 131C286 142.819 288.328 154.522 292.851 165.441C297.374 176.361 304.003 186.282 312.36 194.639C320.718 202.997 330.639 209.626 341.558 214.149Z" fill="#5DC8B4"/>
<rect x="116" y="90" width="10" height="41" fill="#5DC8B4"/>
<path fill-rule="evenodd" clip-rule="evenodd" d="M70.4415 214.149C59.5222 218.672 47.819 221 36 221L36 211C46.5057 211 56.9086 208.931 66.6147 204.91C76.3207 200.89 85.1399 194.997 92.5685 187.568C99.9972 180.14 105.89 171.32 109.91 161.614C113.931 151.908 116 141.506 116 131L126 131C126 142.819 123.672 154.522 119.149 165.441C114.626 176.361 107.997 186.282 99.6396 194.639C91.2823 202.997 81.3608 209.626 70.4415 214.149Z" fill="#5DC8B4"/>
<path fill-rule="evenodd" clip-rule="evenodd" d="M289.149 55.5585C293.672 66.4778 296 78.181 296 90L286 90C286 79.4943 283.931 69.0914 279.91 59.3853C275.89 49.6793 269.997 40.8601 262.569 33.4315C255.14 26.0028 246.321 20.11 236.615 16.0896C226.909 12.0693 216.506 10 206 10L206 0C217.819 5.16624e-07 229.522 2.32792 240.442 6.85084C251.361 11.3738 261.282 18.0031 269.64 26.3604C277.997 34.7177 284.626 44.6392 289.149 55.5585Z" fill="#5DC8B4"/>
<path fill-rule="evenodd" clip-rule="evenodd" d="M240.442 173.149C229.522 177.672 217.819 180 206 180L206 170C216.506 170 226.909 167.931 236.615 163.91C246.321 159.89 255.14 153.997 262.569 146.569C269.997 139.14 275.89 130.321 279.91 120.615C283.931 110.909 286 100.506 286 90L296 90C296 101.819 293.672 113.522 289.149 124.442C284.626 135.361 277.997 145.282 269.64 153.64C261.282 161.997 251.361 168.626 240.442 173.149Z" fill="#5DC8B4"/>
<path fill-rule="evenodd" clip-rule="evenodd" d="M122.851 55.5585C118.328 66.4778 116 78.181 116 90L126 90C126 79.4942 128.069 69.0914 132.09 59.3853C136.11 49.6793 142.003 40.8601 149.431 33.4315C156.86 26.0028 165.679 20.11 175.385 16.0896C185.091 12.0693 195.494 10 206 10L206 0C194.181 -1.03325e-06 182.478 2.32792 171.558 6.85084C160.639 11.3738 150.718 18.0031 142.36 26.3604C134.003 34.7177 127.374 44.6392 122.851 55.5585Z" fill="#5DC8B4"/>
<path fill-rule="evenodd" clip-rule="evenodd" d="M171.558 173.149C182.478 177.672 194.181 180 206 180L206 170C195.494 170 185.091 167.931 175.385 163.91C165.679 159.89 156.86 153.997 149.431 146.569C142.003 139.14 136.11 130.321 132.09 120.615C128.069 110.909 126 100.506 126 90L116 90C116 101.819 118.328 113.522 122.851 124.442C127.374 135.361 134.003 145.282 142.36 153.64C150.718 161.997 160.639 168.626 171.558 173.149Z" fill="#5DC8B4"/>
</svg>
