<svg width="247" height="205" viewBox="0 0 247 205" fill="none" xmlns="http://www.w3.org/2000/svg">
<path d="M129.358 179.777V169.777H4.99991C2.23849 169.777 -9.15527e-05 172.016 -9.15527e-05 174.777C-9.15527e-05 177.539 2.23849 179.777 4.99991 179.777H129.358Z" fill="#5DC8B4"/>
<path d="M204.847 115.808L214.323 119.004L245.002 28.0382C245.884 25.4216 244.478 22.585 241.862 21.7025C239.245 20.8201 236.409 22.2259 235.526 24.8425L204.847 115.808Z" fill="#5DC8B4"/>
<path d="M214 179.777C216.761 179.777 219 177.539 219 174.777C219 172.016 216.761 169.777 214 169.777H129V179.777H214Z" fill="#5DC8B4"/>
<path fill-rule="evenodd" clip-rule="evenodd" d="M135.421 179.796C123.629 180.592 111.795 179.058 100.596 175.281L103.792 165.805C113.747 169.162 124.265 170.526 134.747 169.818C145.229 169.111 155.469 166.345 164.882 161.68C174.295 157.015 182.697 150.541 189.609 142.629C196.52 134.717 201.805 125.521 205.163 115.566L214.638 118.762C210.861 129.961 204.915 140.307 197.14 149.208C189.365 158.109 179.912 165.392 169.323 170.64C158.733 175.888 147.213 178.999 135.421 179.796Z" fill="#5DC8B4"/>
<path fill-rule="evenodd" clip-rule="evenodd" d="M129.358 0C179.063 0 219.358 40.2944 219.358 90C219.358 139.706 179.063 180 129.358 180C79.652 180 39.3577 139.706 39.3577 90C39.3577 40.2944 79.652 0 129.358 0ZM129.358 10C173.54 10 209.358 45.8172 209.358 90C209.358 134.183 173.54 170 129.358 170C85.1749 170 49.3577 134.183 49.3577 90C49.3577 45.8172 85.1749 10 129.358 10Z" fill="#5DC8B4"/>
</svg>
