<svg width="339" height="346" viewBox="0 0 339 346" fill="none" xmlns="http://www.w3.org/2000/svg">
<path d="M105.488 161.21L96.8275 166.21L161.328 277.927C162.708 280.319 165.766 281.138 168.158 279.758C170.549 278.377 171.369 275.319 169.988 272.927L105.488 161.21Z" fill="#5DC8B4"/>
<path fill-rule="evenodd" clip-rule="evenodd" d="M245.052 82.9423C222.961 44.6789 174.033 31.5689 135.77 53.6603L130.77 45C151.442 33.0653 176.008 29.8311 199.064 36.009C222.12 42.1869 241.778 57.2707 253.712 77.9423C265.647 98.6139 268.881 123.18 262.703 146.236C256.525 169.292 241.442 188.95 220.77 200.885L215.77 192.224C254.033 170.133 267.143 121.206 245.052 82.9423Z" fill="#5DC8B4"/>
<path fill-rule="evenodd" clip-rule="evenodd" d="M86.54 134.69C88.0827 146.407 91.9182 157.707 97.8277 167.942L106.488 162.942C101.235 153.844 97.8257 143.8 96.4544 133.384C95.0832 122.969 95.7769 112.385 98.496 102.237C101.215 92.089 105.906 82.5761 112.302 74.2414C118.697 65.9066 126.672 58.9131 135.77 53.6603L130.77 45C120.534 50.9095 111.563 58.7771 104.368 68.1538C97.1733 77.5304 91.8957 88.2323 88.8367 99.6486C85.7777 111.065 84.9973 122.972 86.54 134.69Z" fill="#5DC8B4"/>
<path fill-rule="evenodd" clip-rule="evenodd" d="M315.558 198.765C323.611 204.944 330.551 212.433 336.093 220.908C337.604 223.219 336.773 226.286 334.382 227.667C331.99 229.047 328.945 228.218 327.418 225.917C322.543 218.574 316.481 212.078 309.471 206.698C301.136 200.303 291.623 195.612 281.475 192.893C271.327 190.173 260.743 189.48 250.328 190.851C241.566 192.004 233.069 194.6 225.175 198.521C222.702 199.75 219.65 198.946 218.27 196.554C216.889 194.163 217.703 191.092 220.167 189.846C229.204 185.277 238.959 182.261 249.022 180.937C260.74 179.394 272.647 180.174 284.063 183.233C295.48 186.292 306.182 191.57 315.558 198.765Z" fill="#5DC8B4"/>
<path d="M89.3301 265.224C86.9387 266.605 86.1193 269.663 87.5 272.054C88.8807 274.446 91.9387 275.265 94.3301 273.885L222.502 199.885L217.502 191.224L89.3301 265.224Z" fill="#5DC8B4"/>
</svg>
