<svg width="725" height="631" viewBox="0 0 725 631" fill="none" xmlns="http://www.w3.org/2000/svg">
<path d="M240 419.331V409.331L5 409.331C2.23857 409.331 0 411.569 0 414.331C0 417.092 2.23857 419.331 5 419.331L240 419.331Z" fill="#5DC8B4"/>
<path d="M405 0.330811V10.3308L720 10.3308C722.761 10.3308 725 8.09223 725 5.33081C725 2.56939 722.761 0.330811 720 0.330811L405 0.330811Z" fill="#5DC8B4"/>
<rect width="10" height="172" transform="matrix(1 0 0 -1 535 260.331)" fill="#5DC8B4"/>
<rect width="10" height="280" transform="matrix(1 0 0 -1 535.222 540)" fill="#5DC8B4"/>
<rect width="10" height="41" transform="matrix(1 0 0 -1 170 540.331)" fill="#5DC8B4"/>
<rect width="10" height="195" transform="matrix(0 1 1 0 260 620.331)" fill="#5DC8B4"/>
<rect width="10" height="220" transform="matrix(0 1 1 0 235.222 170)" fill="#5DC8B4"/>
<rect width="10" height="244" transform="matrix(1 0 0 -1 315.222 334)" fill="#5DC8B4"/>
<path fill-rule="evenodd" clip-rule="evenodd" d="M318.751 366.528C323.023 356.215 325.222 345.162 325.222 334H315.222C315.222 375.421 281.643 409 240.222 409L240.222 419C251.384 419 262.437 416.801 272.75 412.53C283.062 408.258 292.433 401.997 300.326 394.104C308.219 386.211 314.48 376.841 318.751 366.528Z" fill="#5DC8B4"/>
<path fill-rule="evenodd" clip-rule="evenodd" d="M235.222 9.99999C191.039 9.99999 155.222 45.8172 155.222 90L145.222 90C145.222 66.1305 154.704 43.2386 171.582 26.3604C188.46 9.4821 211.352 -1.52588e-05 235.222 -7.62939e-06C259.091 0 281.983 9.48212 298.861 26.3604C315.74 43.2387 325.222 66.1305 325.222 90L315.222 90C315.222 45.8172 279.404 9.99999 235.222 9.99999Z" fill="#5DC8B4"/>
<path fill-rule="evenodd" clip-rule="evenodd" d="M200.78 173.149C211.699 177.672 223.403 180 235.222 180V170C224.716 170 214.313 167.931 204.607 163.91C194.901 159.89 186.082 153.997 178.653 146.569C171.224 139.14 165.332 130.321 161.311 120.615C157.291 110.909 155.222 100.506 155.222 90L145.222 90C145.222 101.819 147.55 113.522 152.073 124.442C156.595 135.361 163.225 145.282 171.582 153.64C179.939 161.997 189.861 168.626 200.78 173.149Z" fill="#5DC8B4"/>
<path fill-rule="evenodd" clip-rule="evenodd" d="M124.442 416.182C113.522 411.659 101.819 409.331 90 409.331V419.331C100.506 419.331 110.909 421.4 120.615 425.42C130.321 429.441 139.14 435.334 146.569 442.762C153.997 450.191 159.89 459.01 163.91 468.716C167.931 478.422 170 488.825 170 499.331L180 499.331C180 487.512 177.672 475.809 173.149 464.889C168.626 453.97 161.997 444.048 153.64 435.691C145.282 427.334 135.361 420.705 124.442 416.182Z" fill="#5DC8B4"/>
<path fill-rule="evenodd" clip-rule="evenodd" d="M176.851 574.772C172.328 563.853 170 552.15 170 540.331H180C180 550.837 182.069 561.239 186.09 570.945C190.11 580.652 196.003 589.471 203.431 596.899C210.86 604.328 219.679 610.221 229.385 614.241C239.091 618.262 249.494 620.331 260 620.331L260 630.331C248.181 630.331 236.478 628.003 225.558 623.48C214.639 618.957 204.718 612.328 196.36 603.97C188.003 595.613 181.374 585.692 176.851 574.772Z" fill="#5DC8B4"/>
<path fill-rule="evenodd" clip-rule="evenodd" d="M489.663 623.149C478.744 627.672 467.041 630 455.222 630V620C465.727 620 476.13 617.931 485.836 613.91C495.542 609.89 504.362 603.997 511.79 596.569C519.219 589.14 525.112 580.321 529.132 570.615C533.152 560.909 535.222 550.506 535.222 540L545.222 540C545.222 551.819 542.894 563.522 538.371 574.442C533.848 585.361 527.219 595.282 518.861 603.64C510.504 611.997 500.582 618.626 489.663 623.149Z" fill="#5DC8B4"/>
<path fill-rule="evenodd" clip-rule="evenodd" d="M489.663 176.851C478.744 172.328 467.041 170 455.222 170V180C465.727 180 476.13 182.069 485.836 186.09C495.542 190.11 504.362 196.003 511.79 203.431C519.219 210.86 525.112 219.679 529.132 229.385C533.152 239.091 535.222 249.494 535.222 260L545.222 260C545.222 248.181 542.894 236.478 538.371 225.558C533.848 214.639 527.219 204.718 518.861 196.36C510.504 188.003 500.582 181.374 489.663 176.851Z" fill="#5DC8B4"/>
<path fill-rule="evenodd" clip-rule="evenodd" d="M370.78 6.85084C381.699 2.32791 393.403 -7.62939e-06 405.222 -7.62939e-06V9.99999C394.716 9.99999 384.313 12.0693 374.607 16.0896C364.901 20.11 356.082 26.0028 348.653 33.4315C341.224 40.8601 335.332 49.6793 331.311 59.3853C327.291 69.0914 325.222 79.4942 325.222 90L315.222 90C315.222 78.181 317.55 66.4778 322.073 55.5585C326.595 44.6392 333.225 34.7177 341.582 26.3604C349.939 18.0031 359.861 11.3738 370.78 6.85084Z" fill="#5DC8B4"/>
<path fill-rule="evenodd" clip-rule="evenodd" d="M590.558 6.85084C601.478 2.32791 613.181 -7.62939e-06 625 -7.62939e-06V9.99999C614.494 9.99999 604.091 12.0693 594.385 16.0896C584.679 20.11 575.86 26.0028 568.431 33.4315C561.003 40.8601 555.11 49.6793 551.09 59.3853C547.069 69.0914 545 79.4942 545 90L535 90C535 78.181 537.328 66.4778 541.851 55.5585C546.374 44.6392 553.003 34.7177 561.36 26.3604C569.718 18.0031 579.639 11.3738 590.558 6.85084Z" fill="#5DC8B4"/>
<path fill-rule="evenodd" clip-rule="evenodd" d="M455.222 450C504.927 450 545.222 490.294 545.222 540C545.222 589.706 504.927 630 455.222 630C405.516 630 365.222 589.706 365.222 540C365.222 490.294 405.516 450 455.222 450ZM455.222 460C499.404 460 535.222 495.817 535.222 540C535.222 584.183 499.404 620 455.222 620C411.039 620 375.222 584.183 375.222 540C375.222 495.817 411.039 460 455.222 460Z" fill="#5DC8B4"/>
</svg>
