<svg width="222" height="383" viewBox="0 0 222 383" fill="none" xmlns="http://www.w3.org/2000/svg">
<path d="M211.222 378C211.222 380.761 213.461 383 216.222 383C218.984 383 221.222 380.761 221.222 378V5C221.222 2.23859 218.984 0 216.222 0C213.461 0 211.222 2.23859 211.222 5V378Z" fill="#161618"/>
<rect width="10" height="41" transform="matrix(0 1 1 0 90.2224 87)" fill="#161618"/>
<path fill-rule="evenodd" clip-rule="evenodd" d="M214.371 41.4415C218.894 30.5222 221.222 18.819 221.222 7H211.222C211.222 17.5058 209.153 27.9086 205.133 37.6147C201.112 47.3207 195.219 56.1399 187.791 63.5685C180.362 70.9972 171.543 76.89 161.837 80.9104C152.131 84.9307 141.728 87 131.222 87L131.222 97C143.041 97 154.744 94.6721 165.664 90.1492C176.583 85.6262 186.505 78.9969 194.862 70.6396C203.219 62.2823 209.848 52.3608 214.371 41.4415Z" fill="#161618"/>
<rect x="90.2224" y="267" width="10" height="41" transform="rotate(-90 90.2224 267)" fill="#161618"/>
<path fill-rule="evenodd" clip-rule="evenodd" d="M214.371 312.558C218.894 323.478 221.222 335.181 221.222 347H211.222C211.222 336.494 209.153 326.091 205.133 316.385C201.112 306.679 195.219 297.86 187.791 290.431C180.362 283.003 171.543 277.11 161.837 273.09C152.131 269.069 141.728 267 131.222 267L131.222 257C143.041 257 154.744 259.328 165.664 263.851C176.583 268.374 186.505 275.003 194.862 283.36C203.219 291.718 209.848 301.639 214.371 312.558Z" fill="#161618"/>
<path fill-rule="evenodd" clip-rule="evenodd" d="M55.7809 93.8508C66.7002 89.3279 78.4034 87 90.2224 87V97C79.7167 97 69.3138 99.0693 59.6077 103.09C49.9017 107.11 41.0826 113.003 33.6539 120.431C26.2252 127.86 20.3324 136.679 16.312 146.385C12.2917 156.091 10.2224 166.494 10.2224 177L0.222412 177C0.222412 165.181 2.55033 153.478 7.07325 142.558C11.5962 131.639 18.2255 121.718 26.5828 113.36C34.9401 105.003 44.8616 98.3738 55.7809 93.8508Z" fill="#161618"/>
<path fill-rule="evenodd" clip-rule="evenodd" d="M173.372 142.558C177.895 153.478 180.222 165.181 180.222 177H170.222C170.222 166.494 168.153 156.091 164.133 146.385C160.112 136.679 154.22 127.86 146.791 120.431C139.362 113.003 130.543 107.11 120.837 103.09C111.131 99.0693 100.728 97 90.2224 97L90.2224 87C102.041 87 113.745 89.3279 124.664 93.8508C135.583 98.3738 145.505 105.003 153.862 113.36C162.219 121.718 168.849 131.639 173.372 142.558Z" fill="#161618"/>
<path fill-rule="evenodd" clip-rule="evenodd" d="M55.7809 260.149C66.7002 264.672 78.4034 267 90.2224 267L90.2224 257C79.7167 257 69.3138 254.931 59.6077 250.91C49.9017 246.89 41.0826 240.997 33.6539 233.569C26.2252 226.14 20.3324 217.321 16.312 207.615C12.2917 197.909 10.2224 187.506 10.2224 177L0.222412 177C0.222412 188.819 2.55033 200.522 7.07325 211.442C11.5962 222.361 18.2255 232.282 26.5828 240.64C34.9401 248.997 44.8616 255.626 55.7809 260.149Z" fill="#161618"/>
<path fill-rule="evenodd" clip-rule="evenodd" d="M173.372 211.442C177.895 200.522 180.222 188.819 180.222 177H170.222C170.222 187.506 168.153 197.909 164.133 207.615C160.112 217.321 154.22 226.14 146.791 233.569C139.362 240.997 130.543 246.89 120.837 250.91C111.131 254.931 100.728 257 90.2224 257L90.2224 267C102.041 267 113.745 264.672 124.664 260.149C135.583 255.626 145.505 248.997 153.862 240.64C162.219 232.282 168.849 222.361 173.372 211.442Z" fill="#161618"/>
</svg>
