<svg width="242" height="260" viewBox="0 0 242 260" fill="none" xmlns="http://www.w3.org/2000/svg">
<path d="M71.2227 88H61.2227L61.2227 217C61.2227 219.761 63.4612 222 66.2227 222C68.9841 222 71.2227 219.761 71.2227 217L71.2227 88Z" fill="#161618"/>
<path fill-rule="evenodd" clip-rule="evenodd" d="M231.223 90C231.223 45.8172 195.405 10 151.223 10L151.223 0C175.092 0 197.984 9.48213 214.862 26.3604C231.741 43.2387 241.223 66.1305 241.223 90C241.223 113.869 231.741 136.761 214.862 153.64C197.984 170.518 175.092 180 151.223 180L151.223 170C195.405 170 231.223 134.183 231.223 90Z" fill="#161618"/>
<path fill-rule="evenodd" clip-rule="evenodd" d="M68.0735 55.5585C63.5506 66.4778 61.2226 78.181 61.2226 90H71.2226C71.2226 79.4942 73.2919 69.0914 77.3123 59.3853C81.3327 49.6793 87.2254 40.8601 94.6541 33.4315C102.083 26.0028 110.902 20.11 120.608 16.0896C130.314 12.0693 140.717 10 151.223 10L151.223 0C139.404 0 127.7 2.32792 116.781 6.85084C105.862 11.3738 95.9403 18.0031 87.583 26.3604C79.2258 34.7177 72.5964 44.6392 68.0735 55.5585Z" fill="#161618"/>
<path fill-rule="evenodd" clip-rule="evenodd" d="M234.372 225.558C238.256 234.936 240.522 244.892 241.084 255.002C241.237 257.76 238.984 260 236.223 260C233.461 260 231.239 257.759 231.066 255.003C230.516 246.207 228.515 237.549 225.133 229.385C221.113 219.679 215.22 210.86 207.791 203.431C200.363 196.003 191.543 190.11 181.837 186.09C173.673 182.708 165.016 180.707 156.219 180.156C153.463 179.984 151.223 177.761 151.223 175C151.223 172.239 153.463 169.986 156.22 170.139C166.331 170.701 176.287 172.967 185.664 176.851C196.583 181.374 206.505 188.003 214.862 196.36C223.22 204.718 229.849 214.639 234.372 225.558Z" fill="#161618"/>
<path d="M5.22266 170C2.46123 170 0.222656 172.239 0.222656 175C0.222656 177.761 2.46123 180 5.22266 180L153.223 180V170L5.22266 170Z" fill="#161618"/>
</svg>
