<svg width="726" height="631" viewBox="0 0 726 631" fill="none" xmlns="http://www.w3.org/2000/svg">
<path d="M240.623 420V410L5.6228 410C2.86137 410 0.622803 412.239 0.622803 415C0.622803 417.761 2.86137 420 5.6228 420L240.623 420Z" fill="#161618"/>
<path d="M405.623 1V11L720.623 11C723.384 11 725.623 8.76142 725.623 6C725.623 3.23858 723.384 1 720.623 1L405.623 1Z" fill="#161618"/>
<rect width="10" height="172" transform="matrix(1 0 0 -1 535.623 261)" fill="#161618"/>
<rect width="10" height="280" transform="matrix(1 0 0 -1 535.844 540.669)" fill="#161618"/>
<rect width="10" height="41" transform="matrix(1 0 0 -1 170.623 541)" fill="#161618"/>
<rect width="10" height="195" transform="matrix(0 1 1 0 260.623 621)" fill="#161618"/>
<rect width="10" height="220" transform="matrix(0 1 1 0 235.844 170.669)" fill="#161618"/>
<rect width="10" height="244" transform="matrix(1 0 0 -1 315.844 334.669)" fill="#161618"/>
<path fill-rule="evenodd" clip-rule="evenodd" d="M319.374 367.197C323.646 356.885 325.844 345.832 325.844 334.669H315.844C315.844 376.091 282.266 409.669 240.844 409.669L240.844 419.669C252.007 419.669 263.06 417.471 273.373 413.199C283.685 408.927 293.056 402.666 300.949 394.773C308.842 386.88 315.103 377.51 319.374 367.197Z" fill="#161618"/>
<path fill-rule="evenodd" clip-rule="evenodd" d="M235.844 10.6692C191.662 10.6692 155.844 46.4864 155.844 90.6692L145.844 90.6692C145.844 66.7997 155.327 43.9078 172.205 27.0296C189.083 10.1513 211.975 0.669174 235.844 0.669182C259.714 0.669189 282.606 10.1513 299.484 27.0296C316.362 43.9079 325.844 66.7997 325.844 90.6692L315.844 90.6692C315.844 46.4864 280.027 10.6692 235.844 10.6692Z" fill="#161618"/>
<path fill-rule="evenodd" clip-rule="evenodd" d="M201.403 173.818C212.322 178.341 224.026 180.669 235.844 180.669V170.669C225.339 170.669 214.936 168.6 205.23 164.58C195.524 160.559 186.705 154.666 179.276 147.238C171.847 139.809 165.954 130.99 161.934 121.284C157.914 111.578 155.844 101.175 155.844 90.6692L145.844 90.6692C145.844 102.488 148.172 114.191 152.695 125.111C157.218 136.03 163.848 145.952 172.205 154.309C180.562 162.666 190.484 169.295 201.403 173.818Z" fill="#161618"/>
<path fill-rule="evenodd" clip-rule="evenodd" d="M125.064 416.851C114.145 412.328 102.442 410 90.6228 410V420C101.129 420 111.531 422.069 121.237 426.09C130.944 430.11 139.763 436.003 147.191 443.431C154.62 450.86 160.513 459.679 164.533 469.385C168.554 479.091 170.623 489.494 170.623 500L180.623 500C180.623 488.181 178.295 476.478 173.772 465.558C169.249 454.639 162.62 444.718 154.262 436.36C145.905 428.003 135.984 421.374 125.064 416.851Z" fill="#161618"/>
<path fill-rule="evenodd" clip-rule="evenodd" d="M177.474 575.442C172.951 564.522 170.623 552.819 170.623 541H180.623C180.623 551.506 182.692 561.909 186.712 571.615C190.733 581.321 196.626 590.14 204.054 597.569C211.483 604.997 220.302 610.89 230.008 614.91C239.714 618.931 250.117 621 260.623 621L260.623 631C248.804 631 237.101 628.672 226.181 624.149C215.262 619.626 205.34 612.997 196.983 604.64C188.626 596.282 181.997 586.361 177.474 575.442Z" fill="#161618"/>
<path fill-rule="evenodd" clip-rule="evenodd" d="M490.286 623.818C479.367 628.341 467.663 630.669 455.844 630.669V620.669C466.35 620.669 476.753 618.6 486.459 614.58C496.165 610.559 504.984 604.666 512.413 597.238C519.842 589.809 525.734 580.99 529.755 571.284C533.775 561.578 535.844 551.175 535.844 540.669L545.844 540.669C545.844 552.488 543.517 564.191 538.994 575.111C534.471 586.03 527.841 595.952 519.484 604.309C511.127 612.666 501.205 619.295 490.286 623.818Z" fill="#161618"/>
<path fill-rule="evenodd" clip-rule="evenodd" d="M490.286 177.52C479.367 172.997 467.663 170.669 455.844 170.669V180.669C466.35 180.669 476.753 182.738 486.459 186.759C496.165 190.779 504.984 196.672 512.413 204.101C519.842 211.529 525.734 220.348 529.755 230.055C533.775 239.761 535.844 250.163 535.844 260.669L545.844 260.669C545.844 248.85 543.517 237.147 538.994 226.228C534.471 215.308 527.841 205.387 519.484 197.03C511.127 188.672 501.205 182.043 490.286 177.52Z" fill="#161618"/>
<path fill-rule="evenodd" clip-rule="evenodd" d="M371.403 7.52003C382.322 2.9971 394.026 0.669182 405.844 0.669182V10.6692C395.339 10.6692 384.936 12.7384 375.23 16.7588C365.524 20.7792 356.705 26.672 349.276 34.1006C341.847 41.5293 335.954 50.3485 331.934 60.0545C327.914 69.7606 325.844 80.1634 325.844 90.6692L315.844 90.6692C315.844 78.8502 318.172 67.147 322.695 56.2277C327.218 45.3084 333.848 35.3868 342.205 27.0296C350.562 18.6723 360.484 12.0429 371.403 7.52003Z" fill="#161618"/>
<path fill-rule="evenodd" clip-rule="evenodd" d="M591.181 7.52003C602.101 2.9971 613.804 0.669182 625.623 0.669182V10.6692C615.117 10.6692 604.714 12.7384 595.008 16.7588C585.302 20.7792 576.483 26.672 569.054 34.1006C561.626 41.5293 555.733 50.3485 551.712 60.0545C547.692 69.7606 545.623 80.1634 545.623 90.6692L535.623 90.6692C535.623 78.8502 537.951 67.147 542.474 56.2277C546.997 45.3084 553.626 35.3868 561.983 27.0296C570.34 18.6723 580.262 12.0429 591.181 7.52003Z" fill="#161618"/>
<path fill-rule="evenodd" clip-rule="evenodd" d="M455.844 450.669C505.55 450.669 545.844 490.964 545.844 540.669C545.844 590.375 505.55 630.669 455.844 630.669C406.139 630.669 365.844 590.375 365.844 540.669C365.844 490.964 406.139 450.669 455.844 450.669ZM455.844 460.669C500.027 460.669 535.844 496.486 535.844 540.669C535.844 584.852 500.027 620.669 455.844 620.669C411.662 620.669 375.844 584.852 375.844 540.669C375.844 496.486 411.662 460.669 455.844 460.669Z" fill="#161618"/>
</svg>
