<svg width="248" height="205" viewBox="0 0 248 205" fill="none" xmlns="http://www.w3.org/2000/svg">
<path d="M129.981 180.735V170.735H5.62283C2.86141 170.735 0.622833 172.973 0.622833 175.735C0.622833 178.496 2.86141 180.735 5.62283 180.735H129.981Z" fill="#161618"/>
<path d="M205.47 116.766L214.945 119.962L245.625 28.996C246.507 26.3794 245.101 23.5428 242.485 22.6603C239.868 21.7778 237.031 23.1836 236.149 25.8002L205.47 116.766Z" fill="#161618"/>
<path d="M214.623 180.735C217.384 180.735 219.623 178.496 219.623 175.735C219.623 172.973 217.384 170.735 214.623 170.735H129.623V180.735H214.623Z" fill="#161618"/>
<path fill-rule="evenodd" clip-rule="evenodd" d="M136.044 180.753C124.251 181.55 112.418 180.015 101.219 176.238L104.415 166.763C114.369 170.12 124.888 171.484 135.37 170.776C145.852 170.068 156.092 167.303 165.505 162.638C174.918 157.973 183.32 151.499 190.231 143.587C197.143 135.675 202.428 126.479 205.785 116.524L215.261 119.719C211.484 130.919 205.538 141.264 197.763 150.166C189.988 159.067 180.535 166.35 169.945 171.598C159.356 176.846 147.836 179.957 136.044 180.753Z" fill="#161618"/>
<path fill-rule="evenodd" clip-rule="evenodd" d="M129.98 0.957764C179.686 0.957764 219.98 41.2521 219.98 90.9578C219.98 140.663 179.686 180.958 129.98 180.958C80.2748 180.958 39.9805 140.663 39.9805 90.9578C39.9805 41.2521 80.2748 0.957764 129.98 0.957764ZM129.98 10.9578C174.163 10.9578 209.98 46.775 209.98 90.9578C209.98 135.141 174.163 170.958 129.98 170.958C85.7977 170.958 49.9805 135.141 49.9805 90.9578C49.9805 46.775 85.7977 10.9578 129.98 10.9578Z" fill="#161618"/>
</svg>
