<svg width="296" height="199" viewBox="0 0 296 199" fill="none" xmlns="http://www.w3.org/2000/svg">
<path d="M8.45827 84.4996C5.90877 83.4387 2.98196 84.6454 1.92105 87.1949C0.860138 89.7444 2.06688 92.6712 4.61637 93.7321L252.972 197.079C255.521 198.14 258.448 196.933 259.509 194.384C260.57 191.834 259.363 188.907 256.814 187.847L8.45827 84.4996Z" fill="#161618"/>
<path d="M213.304 84.1742C215.426 79.0752 213.013 73.2216 207.914 71.0998L124.821 36.5227C119.722 34.4009 113.868 36.8144 111.746 41.9134L213.304 84.1742Z" fill="#161618"/>
<path fill-rule="evenodd" clip-rule="evenodd" d="M223.806 177.522C232.149 185.893 242.06 192.538 252.972 197.079L256.814 187.846C247.114 183.81 238.305 177.903 230.888 170.462C223.472 163.022 217.593 154.193 213.589 144.48C209.584 134.768 207.532 124.361 207.549 113.856C207.566 103.35 209.652 92.9504 213.688 83.251L204.456 79.4091C199.915 90.321 197.568 102.02 197.549 113.839C197.53 125.658 199.838 137.365 204.344 148.292C208.849 159.219 215.462 169.151 223.806 177.522Z" fill="#161618"/>
<path fill-rule="evenodd" clip-rule="evenodd" d="M38.1234 100.255C26.3044 100.236 14.605 97.8886 3.6931 93.3479L7.53499 84.1153C17.2345 88.1515 27.634 90.2378 38.1397 90.2549C48.6454 90.272 59.0517 88.2197 68.7643 84.2152C78.4769 80.2106 87.3056 74.3323 94.7464 66.9157C102.187 59.4991 108.094 50.6896 112.13 40.9901L121.363 44.832C116.822 55.7439 110.177 65.6546 101.806 73.9983C93.435 82.3419 83.5027 88.9551 72.576 93.4602C61.6494 97.9653 49.9423 100.274 38.1234 100.255Z" fill="#161618"/>
</svg>
