<svg width="296" height="199" viewBox="0 0 296 199" fill="none" xmlns="http://www.w3.org/2000/svg">
<path d="M8.45807 84.0914C5.90857 83.0304 2.98176 84.2372 1.92085 86.7867C0.85994 89.3362 2.06668 92.263 4.61617 93.3239L252.972 196.671C255.521 197.732 258.448 196.525 259.509 193.976C260.57 191.426 259.363 188.499 256.813 187.438L8.45807 84.0914Z" fill="#5DC8B4"/>
<path d="M213.306 83.7661C215.427 78.6671 213.014 72.8135 207.915 70.6917L124.822 36.1146C119.723 33.9928 113.87 36.4063 111.748 41.5053L213.306 83.7661Z" fill="#5DC8B4"/>
<path fill-rule="evenodd" clip-rule="evenodd" d="M223.807 177.114C232.15 185.485 242.061 192.13 252.973 196.671L256.815 187.438C247.115 183.402 238.306 177.495 230.889 170.054C223.473 162.613 217.594 153.785 213.59 144.072C209.585 134.36 207.533 123.953 207.55 113.448C207.567 102.942 209.653 92.5423 213.69 82.8429L204.457 79.001C199.916 89.9129 197.569 101.612 197.55 113.431C197.531 125.25 199.84 136.957 204.345 147.884C208.85 158.811 215.463 168.743 223.807 177.114Z" fill="#5DC8B4"/>
<path fill-rule="evenodd" clip-rule="evenodd" d="M38.1236 99.8467C26.3047 99.8274 14.6053 97.4804 3.69334 92.9397L38.2704 9.84678L38.2707 9.8469L7.53556 83.7072C17.235 87.7434 27.6345 89.8296 38.1403 89.8467C48.646 89.8638 59.0522 87.8115 68.7648 83.807C78.4774 79.8025 87.3061 73.9241 94.7469 66.5075C102.188 59.091 108.095 50.2815 112.131 40.582L121.363 44.4238C116.823 55.3357 110.177 65.2464 101.806 73.5901C93.4353 81.9337 83.5029 88.5469 72.5763 93.052C61.6496 97.5571 49.9426 99.8659 38.1236 99.8467Z" fill="#5DC8B4"/>
</svg>
